<?xml version="1.0" encoding="UTF-8" standalone="no"?>
<svg
   xmlns:dc="http://purl.org/dc/elements/1.1/"
   xmlns:cc="http://creativecommons.org/ns#"
   xmlns:rdf="http://www.w3.org/1999/02/22-rdf-syntax-ns#"
   xmlns:svg="http://www.w3.org/2000/svg"
   xmlns="http://www.w3.org/2000/svg"
   xmlns:sodipodi="http://sodipodi.sourceforge.net/DTD/sodipodi-0.dtd"
   xmlns:inkscape="http://www.inkscape.org/namespaces/inkscape"
   enable-background="new 0 0 612 792"
   xml:space="preserve"
   height="200"
   viewBox="0 0 200.46158 199.97192"
   width="200"
   version="1.1"
   y="0px"
   x="0px"
   id="svg2"
   inkscape:version="0.91 r13725"
   sodipodi:docname="Syracuse_University_Seal.svg"
   inkscape:export-filename="Syracuse_University_Seal.png"
   inkscape:export-xdpi="198.002"
   inkscape:export-ydpi="198.002"><metadata
     id="metadata142"><rdf:RDF><cc:Work
         rdf:about=""><dc:format>image/svg+xml</dc:format><dc:type
           rdf:resource="http://purl.org/dc/dcmitype/StillImage" /></cc:Work></rdf:RDF></metadata><defs
     id="defs140" /><sodipodi:namedview
     pagecolor="#ffffff"
     bordercolor="#666666"
     borderopacity="1"
     objecttolerance="10"
     gridtolerance="10"
     guidetolerance="10"
     inkscape:pageopacity="0"
     inkscape:pageshadow="2"
     inkscape:window-width="2133"
     inkscape:window-height="1140"
     id="namedview138"
     showgrid="false"
     inkscape:zoom="0.834386"
     inkscape:cx="-327.4443"
     inkscape:cy="73.889688"
     inkscape:window-x="-8"
     inkscape:window-y="-8"
     inkscape:window-maximized="1"
     inkscape:current-layer="svg2" /><g
     id="g4265"
     style="fill:#d44500;fill-opacity:1"><path
       d="m 91.9,68.7 0,2.29 c -0.927,-0.309 -0.618,-1.63 -1.59,-2.21 -0.75,-0.176 -1.68,-0.176 -2.25,0.441 -0.31,0.176 -0.53,0.618 -0.31,0.927 0.0441,0.441 0.53,0.662 0.838,0.838 1.24,0.662 2.87,0.574 3.71,1.94 0.221,0.706 0.132,1.5 -0.309,2.12 -1.01,1.1 -2.6,1.41 -4.02,0.927 -1.06,-0.132 -1.23,-0.794 -1.28,-1.81 0.176,-0.309 0.0883,-0.75 0.0883,-1.15 0.838,-0.0441 0.618,1.1 0.971,1.59 0.0891,0.441 0.574,0.838 0.972,1.06 0.662,0.265 1.32,-0.0441 1.9,-0.309 0.618,-0.397 0.618,-1.15 0.397,-1.72 -1.32,-1.54 -5.16,-0.882 -4.24,-4.02 0.882,-1.41 2.6,-1.54 4.15,-1.28 0.31,0.133 0.619,0.221 0.972,0.354 z"
       id="path32"
       inkscape:connector-curvature="0"
       style="fill:#d44500;fill-opacity:1" /><path
       d="m 114.9,68.7 -0.0891,2.21 c -0.838,0 -0.573,-1.19 -1.06,-1.68 -0.529,-0.75 -1.59,-0.574 -2.34,-0.441 -0.574,0.309 -0.927,0.838 -0.838,1.5 1.46,1.59 5.6,0.838 4.63,4.24 -0.529,0.927 -1.59,1.59 -2.74,1.59 -1.01,0.132 -1.85,-0.221 -2.65,-0.529 -0.176,-0.927 -0.0891,-1.85 -0.132,-2.56 0.882,-0.0441 0.529,1.19 0.971,1.68 0.397,0.971 1.46,1.15 2.34,0.882 0.485,-0.132 0.706,-0.485 1.06,-0.882 0.221,-2.3 -2.56,-1.9 -3.84,-2.82 -0.573,-0.529 -0.927,-1.32 -0.617,-2.12 0.352,-0.837 1.19,-1.32 2.03,-1.5 1.15,-0.0459 2.29,-0.0459 3.27,0.44 z"
       id="path34"
       inkscape:connector-curvature="0"
       style="fill:#d44500;fill-opacity:1" /><path
       d="m 95.9,68.5 0,0.309 c -0.176,0.221 -0.574,-0.176 -0.838,0.0882 l 0.132,6.18 c 0.441,0.794 1.46,0.662 2.21,0.53 0.529,-0.0891 0.75,-0.662 0.971,-1.06 l 0,-5.65 c -0.309,-0.176 -0.75,-0.0441 -1.06,-0.0882 l 0,-0.309 c 1.01,-0.221 1.5,-0.045 2.43,0 l 0,0.309 c -0.75,-0.265 -0.75,0.397 -0.838,0.838 -0.31,2.03 1.19,5.69 -1.59,6.49 -1.32,0.0441 -3,0.0891 -3.71,-1.28 l -0.132,-5.82 c -0.132,-0.353 -0.485,-0.176 -0.75,-0.221 0.0441,-0.0882 -0.0441,-0.176 -0.0891,-0.221 l 0.221,-0.221 c 1.28,0.0424 1.85,-0.045 3.05,0.131 z"
       id="path36"
       inkscape:connector-curvature="0"
       style="fill:#d44500;fill-opacity:1" /><path
       d="m 107.9,69.9 c 0.618,1.01 0.618,2.34 0.441,3.53 -0.441,1.28 -1.63,2.38 -2.96,2.65 -1.59,0.132 -3,-0.529 -3.71,-1.94 -0.706,-1.32 -0.618,-3.35 0.31,-4.54 1.01,-1.1 2.38,-1.68 3.93,-1.28 0.795,0.22 1.5,0.926 1.99,1.59 z m -3.57,-1.15 c -1.94,0.971 -1.19,3.88 -1.06,5.74 0.31,1.06 1.5,1.19 2.43,0.927 1.32,-1.46 1.06,-4.02 0.618,-5.82 -0.265,-0.75 -1.15,-0.971 -1.99,-0.838 z"
       id="path38"
       inkscape:connector-curvature="0"
       style="fill:#d44500;fill-opacity:1" /><path
       d="m 128.9,85.3 c 0.176,0.75 0.176,1.63 0,2.34 -0.927,-0.265 -0.618,-1.72 -1.59,-2.21 -0.706,-0.221 -1.54,-0.131 -2.12,0.31 -0.441,0.309 -0.441,0.882 -0.397,1.28 1.46,1.54 5.6,0.927 4.54,4.24 -0.794,1.32 -2.47,1.68 -3.93,1.46 -0.485,-0.309 -1.15,-0.176 -1.59,-0.617 0.0441,-0.838 -0.0891,-1.68 0.0882,-2.43 l 0.353,0 c 0.309,0.927 0.485,2.07 1.46,2.65 0.794,0.265 1.63,-0.045 2.25,-0.53 0.221,-0.397 0.441,-0.927 0.176,-1.37 -1.37,-1.54 -5.07,-1.1 -4.32,-4.06 0.396,-1.01 1.5,-1.32 2.43,-1.46 1.01,-0.176 1.76,0.265 2.65,0.398 z"
       id="path44"
       inkscape:connector-curvature="0"
       style="fill:#d44500;fill-opacity:1" /><path
       d="m 78.2,85.4 0.0883,2.34 c -0.794,-0.265 -0.794,-1.41 -1.37,-2.03 -0.352,-0.574 -1.19,-0.31 -1.68,-0.221 -1.68,1.1 -1.28,3.35 -1.19,5.07 0.132,0.75 0.53,1.54 1.28,1.81 0.882,0.397 1.81,-0.0883 2.12,-0.927 0.309,-0.53 0.176,-1.68 0.971,-1.59 -0.309,1.01 0.794,3.4 -1.28,2.96 -1.32,0.0882 -2.52,-0.0441 -3.49,-0.75 -1.24,-1.1 -1.68,-2.6 -1.28,-4.24 0.221,-0.927 0.838,-1.76 1.68,-2.34 1.24,-0.661 2.82,-0.529 4.15,-0.0882 z"
       id="path46"
       inkscape:connector-curvature="0"
       style="fill:#d44500;fill-opacity:1" /><path
       d="m 82.7,85.2 c 0.176,0.751 -0.706,0.221 -0.971,0.53 l 0.0882,5.74 c 0.132,0.397 0.53,0.793 0.972,0.927 0.971,0.0883 1.9,0 2.34,-0.927 l 0.0891,-5.83 c -0.31,-0.309 -1.15,0.176 -1.15,-0.441 l 2.43,0 0,0.31 -0.75,0.131 c -0.441,2.34 1.15,5.87 -1.37,7.06 -1.15,0.221 -2.47,0.221 -3.4,-0.396 -1.32,-1.72 -0.485,-4.37 -0.75,-6.57 -0.132,-0.353 -0.441,-0.176 -0.706,-0.221 l 0,-0.31 3.18,0 z"
       id="path48"
       inkscape:connector-curvature="0"
       style="fill:#d44500;fill-opacity:1" /><path
       d="m 90.9,85.2 0,0.31 -1.06,0.131 -0.132,6.53 c 0.882,0 2.34,0.618 2.78,-0.618 0.265,-0.706 0.176,-1.68 0.927,-2.03 0.176,0.971 0.0882,2.07 0.131,3.09 -1.99,0.176 -3.97,0.176 -6.04,0 l 0,-0.309 c 0.265,-0.045 0.618,0.131 0.75,-0.221 l -0.131,-6.44 c -0.176,-0.309 -0.882,0.132 -0.751,-0.441 1.19,8.82e-4 2.47,8.82e-4 3.53,8.82e-4 z"
       id="path50"
       inkscape:connector-curvature="0"
       style="fill:#d44500;fill-opacity:1" /><path
       d="m 98.9,87.4 -0.441,0 c -0.309,-0.706 -0.265,-1.68 -0.927,-2.12 -0.309,0.0882 -0.927,-0.221 -0.971,0.309 l 0.221,6.49 c 0.309,0.0883 0.794,-0.176 0.838,0.221 l -0.221,0.176 c -1.1,-0.176 -2.12,-0.0441 -3.18,-0.0883 l 0,-0.309 c 0.838,0.265 0.882,-0.441 0.971,-0.972 l -0.0883,-5.69 c -0.927,-0.529 -1.37,0.397 -1.59,1.06 -0.31,0.265 0.176,1.24 -0.662,0.927 l 0,-2.43 c 2.34,0.176 4.15,-0.309 6.04,0 l 0,2.43 z"
       id="path52"
       inkscape:connector-curvature="0"
       style="fill:#d44500;fill-opacity:1" /><path
       d="m 106.9,86.4 c 0.793,1.5 0.793,3.18 0,4.68 -0.882,1.19 -2.43,1.72 -3.93,1.46 -1.28,-0.265 -2.34,-1.5 -2.65,-2.74 -0.353,-1.41 0.0882,-2.74 0.838,-3.79 1.01,-1.01 2.38,-1.41 3.84,-1.06 0.662,0.354 1.46,0.706 1.9,1.46 z m -3.62,-1.06 c -0.75,0.221 -0.971,1.06 -1.15,1.72 -0.176,1.72 -0.309,3.79 0.971,4.94 0.662,0.221 1.46,0.132 1.99,-0.309 0.927,-1.68 0.53,-3.4 0.31,-5.29 -0.133,-1.02 -1.32,-1.15 -2.12,-1.06 z"
       id="path54"
       inkscape:connector-curvature="0"
       style="fill:#d44500;fill-opacity:1" /><path
       d="m 114.9,86.4 c 0.265,0.972 -0.441,1.72 -1.19,2.12 -0.397,0.131 -0.882,0.131 -1.23,0.397 1.28,1.06 2.07,4.28 4.24,3 l -0.132,-6.35 c -0.176,-0.309 -0.882,0.132 -0.75,-0.441 l 6.49,-0.0882 0,2.52 c -0.837,0 -0.573,-1.19 -1.06,-1.68 -0.707,-0.794 -1.99,-0.31 -2.96,-0.441 -0.221,0.927 -0.0883,1.99 -0.132,2.96 0.486,0.265 1.41,0.0891 1.72,-0.529 0.176,-0.31 0,-0.927 0.53,-0.927 0.176,0.927 0.0441,2.25 0.0882,3.4 -0.927,0.0441 -0.309,-1.46 -1.37,-1.5 l -0.838,0 -0.132,3.18 c 1.06,-0.0891 2.91,0.75 3.31,-0.751 0.309,-0.529 0.131,-1.63 0.927,-1.59 l 0,2.87 -8.78,0 -2.96,-3.4 0,2.96 0.927,0.132 0,0.221 -3.27,0.0882 0,-0.309 0.618,0 0.131,-6.66 -0.751,-0.22 0.0882,-0.309 c 2.25,0.265 5.25,-0.838 6.49,1.37 z m -4.15,-0.838 -0.0891,2.82 c 0.662,0.0891 1.19,-0.131 1.81,-0.176 0.662,-0.352 0.882,-1.23 0.617,-1.94 -0.352,-1.02 -1.5,-0.662 -2.34,-0.707 z"
       id="path56"
       inkscape:connector-curvature="0"
       style="fill:#d44500;fill-opacity:1" /><path
       d="m 80.9,102.4 0,2.21 c -0.838,-0.0441 -0.706,-1.19 -1.19,-1.76 -0.53,-0.529 -1.28,-0.618 -1.99,-0.441 -0.397,0.132 -0.706,0.53 -1.06,0.838 -0.309,0.794 0.485,1.24 0.927,1.5 1.41,0.618 3.66,0.573 3.84,2.52 -0.0441,0.838 -0.397,1.59 -1.19,2.03 -1.24,0.927 -3.31,0.574 -4.54,-0.0883 l 0,-2.47 c 0.927,-0.397 0.397,0.706 0.75,0.971 0.309,0.618 0.618,1.41 1.37,1.68 0.927,0.221 1.63,-0.221 2.25,-0.838 0.397,-2.87 -3.35,-1.63 -4.37,-3.71 -0.176,-0.706 -0.132,-1.59 0.441,-2.12 1.24,-0.882 3.4,-1.02 4.77,-0.31 z"
       id="path62"
       inkscape:connector-curvature="0"
       style="fill:#d44500;fill-opacity:1" /><path
       d="m 88.9,102.4 c -0.0441,0.751 0.0441,1.54 -0.132,2.21 -0.75,-0.131 -0.662,-1.23 -1.15,-1.76 -0.397,-0.618 -1.15,-0.618 -1.72,-0.441 -1.81,1.1 -1.37,3.75 -1.15,5.6 0.221,0.485 0.574,1.01 1.06,1.28 0.75,0.266 1.63,0.045 2.03,-0.617 0.485,-0.618 0.221,-1.85 1.06,-1.94 -0.485,0.927 1.1,3.13 -0.972,3 -1.41,0.31 -2.82,-0.0882 -3.93,-0.882 -1.15,-1.1 -1.32,-2.74 -1.06,-4.32 0.397,-1.32 1.63,-2.16 2.87,-2.56 1.1,-8.8e-4 2.16,-8.8e-4 3.09,0.44 z"
       id="path64"
       inkscape:connector-curvature="0"
       style="fill:#d44500;fill-opacity:1" /><path
       d="m 114.9,104.4 c -1.01,0.397 -0.486,-1.23 -1.06,-1.72 -0.31,-0.31 -0.751,-0.353 -1.19,-0.31 l -0.0883,6.66 c 0.265,0.31 1.01,-0.176 0.927,0.441 l -3.35,0.0891 0,-0.397 0.706,0 0.132,-6.71 c -0.221,-0.176 -0.574,-0.045 -0.838,-0.0891 -0.927,0.485 -0.309,2.03 -1.41,2.12 l 0,-2.43 c 1.85,0.131 4.41,-0.265 6.04,0 l 0.133,2.34 z"
       id="path66"
       inkscape:connector-curvature="0"
       style="fill:#d44500;fill-opacity:1" /><path
       d="m 92.9,102.4 -0.662,0 -0.0882,6.57 c 0.176,0.176 0.485,0.0891 0.75,0.132 l 0,0.397 -3,0 c -0.176,-0.618 0.53,-0.265 0.751,-0.53 l 0,-6.44 c -0.221,-0.265 -0.927,0.0891 -0.751,-0.529 l 3,0 0,0.399 z"
       id="path68"
       inkscape:connector-curvature="0"
       style="fill:#d44500;fill-opacity:1" /><path
       d="m 99.9,104.4 c -0.75,0.221 -0.662,-1.06 -1.06,-1.59 -0.794,-0.972 -1.99,-0.176 -2.96,-0.441 -0.485,0.882 0.0882,2.12 -0.0891,2.87 0.31,0.176 0.751,0.0882 1.15,0.131 0.662,-0.397 0.397,-1.41 1.06,-1.5 l 0.0891,3.4 c -0.882,0.0883 -0.397,-1.15 -1.15,-1.5 -0.441,0.132 -1.15,-0.265 -1.28,0.309 l 0.131,2.87 c 0.972,-0.0441 2.65,0.707 3.18,-0.617 0.176,-0.574 0.485,-1.06 0.529,-1.72 l 0.529,0 0,2.87 c -2.21,0 -4.46,0.0883 -6.57,-0.0891 -0.132,-0.573 0.529,-0.131 0.75,-0.441 l 0,-6.57 c -0.309,0 -0.794,0.0883 -0.75,-0.397 l 6.44,0 0,2.43 z"
       id="path70"
       inkscape:connector-curvature="0"
       style="fill:#d44500;fill-opacity:1" /><path
       d="m 106.9,106.4 0.221,-0.221 c -0.0882,-1.41 0.176,-2.96 -0.221,-4.24 l -0.838,0 0,-0.221 2.34,-0.0883 c -0.0441,0.0883 0.0441,0.131 0.0882,0.221 l -0.838,0.176 0,7.02 c -0.0882,0.176 -0.352,0.0891 -0.529,0.0891 l -4.54,-6.57 -0.132,6.04 c 0.309,0.176 0.75,0.0891 1.06,0.132 l 0,0.309 -2.43,0.0891 0,-0.397 0.75,0 0.0883,-6.57 c -0.131,-0.397 -0.529,-0.131 -0.837,-0.221 l 0,-0.309 c 3.75,-1.41 3.97,3.13 5.82,4.76 z"
       id="path72"
       inkscape:connector-curvature="0"
       style="fill:#d44500;fill-opacity:1" /><path
       d="m 118.9,101.4 c 0.132,0.573 -0.53,0.131 -0.751,0.397 l 0,6.49 c 0.397,0.353 1.15,0.221 1.59,0.0883 l 2.87,-7.1 0.971,0 2.65,7.02 c 0.132,0.221 0.53,0 0.618,0.309 l -0.309,0.31 -2.65,-0.0891 0,-0.309 0.617,0 c 0.0891,-0.882 -0.485,-1.72 -0.706,-2.56 -0.75,0.0891 -2.29,-0.617 -2.78,0.53 0,0.706 -0.882,1.37 -0.397,2.03 l 0.838,0 0,0.307 c -1.99,-0.0441 -4.02,0.045 -5.6,0 l 0,-0.309 0.618,0 0.0882,-6.71 c -0.176,-0.176 -0.485,-0.045 -0.706,-0.0891 l 0.0882,-0.441 c 0.927,0.222 2.12,0.09 2.96,0.134 z m 4.54,3.93 -0.927,-2.34 -0.837,2.43 1.76,-0.0883 z"
       id="path74"
       inkscape:connector-curvature="0"
       style="fill:#d44500;fill-opacity:1" /><path
       d="m 80.7,118.4 0,2.21 c -0.75,-0.045 -0.706,-1.15 -1.15,-1.68 -0.441,-0.794 -0.971,-0.529 -1.68,-0.529 -1.72,0.971 -1.59,3.4 -1.41,5.07 0.176,0.706 0.485,1.41 1.19,1.81 0.882,0.352 1.9,-0.0441 2.21,-0.972 0.309,-0.485 0.265,-1.23 0.75,-1.59 0.353,0.662 0.221,1.85 0.0882,2.65 -1.41,0.397 -3.13,0.662 -4.41,-0.221 -1.54,-1.1 -1.94,-3.04 -1.41,-4.76 0.574,-1.24 1.72,-2.25 3.09,-2.43 0.97,0 1.94,0 2.73,0.441 z"
       id="path84"
       inkscape:connector-curvature="0"
       style="fill:#d44500;fill-opacity:1" /><path
       d="m 113.9,118.4 0,0.31 -0.75,0.0883 -0.0891,7.02 -0.617,0 c -1.54,-2.16 -2.91,-4.37 -4.46,-6.49 l -0.221,0.221 0.0891,5.83 c 0.309,0.176 0.75,0.0883 1.06,0.0883 l 0,0.353 c -0.707,0.131 -1.81,0.131 -2.43,0 -0.0891,-0.618 0.662,-0.132 0.837,-0.441 l 0,-6.44 c -0.131,-0.397 -0.529,-0.132 -0.837,-0.221 l 0,-0.31 2.56,0 c 1.1,1.63 2.21,3.27 3.4,4.85 l 0.0882,-4.32 c -0.221,-0.397 -0.706,-0.132 -1.06,-0.221 l 0,-0.221 c 0.882,-0.176 1.5,-0.0891 2.43,-0.0891 z"
       id="path86"
       inkscape:connector-curvature="0"
       style="fill:#d44500;fill-opacity:1" /><path
       d="m 126.9,118.4 c 0.176,0.793 0.176,1.76 0,2.56 -0.882,-0.265 -0.396,-1.59 -1.28,-2.12 l -0.838,0 0,6.66 0.838,0.0883 0,0.353 -3.35,0 c -0.0882,-0.618 0.662,-0.132 0.927,-0.441 l 0,-6.57 c -0.574,-0.309 -1.46,0.0441 -1.46,0.75 -0.221,0.441 0,1.41 -0.75,1.28 l 0,-2.43 c 1.98,-0.045 3.75,0.0432 5.91,-0.132 z"
       id="path88"
       inkscape:connector-curvature="0"
       style="fill:#d44500;fill-opacity:1" /><path
       d="m 88.9,120.4 c 0.618,1.32 0.353,3.09 -0.397,4.24 -0.927,1.24 -2.34,1.59 -3.71,1.37 -1.32,-0.221 -2.52,-1.41 -2.78,-2.74 -0.31,-1.41 0.0883,-2.74 0.882,-3.79 0.971,-1.01 2.38,-1.41 3.79,-1.06 1.01,0.265 1.63,1.19 2.21,1.99 z m -4.02,-1.59 c -1.68,1.32 -1.28,4.24 -0.751,6.04 0.397,0.838 1.46,0.838 2.25,0.618 1.5,-1.41 1.15,-3.79 0.75,-5.69 -0.264,-1.1 -1.5,-0.971 -2.25,-0.971 z"
       id="path90"
       inkscape:connector-curvature="0"
       style="fill:#d44500;fill-opacity:1" /><path
       d="m 104.9,120.4 c 0.574,1.32 0.706,3.09 -0.132,4.32 -0.927,1.32 -2.47,1.94 -4.1,1.5 -1.28,-0.352 -2.21,-1.63 -2.47,-2.87 -0.221,-1.63 0.221,-3.4 1.72,-4.32 1.01,-0.707 2.25,-0.441 3.4,-0.221 0.617,0.308 1.23,0.97 1.59,1.59 z m -3.53,-1.37 c -0.441,0.221 -0.706,0.265 -1.06,0.75 -0.662,1.72 -0.573,4.19 0.353,5.82 0.574,0.176 1.37,0.53 1.99,0.0891 1.46,-1.54 0.838,-3.93 0.529,-5.83 -0.353,-0.663 -1.01,-1.01 -1.81,-0.838 z"
       id="path92"
       inkscape:connector-curvature="0"
       style="fill:#d44500;fill-opacity:1" /><path
       d="m 96.9,120.4 c 0,0.707 -0.309,1.54 -1.06,1.76 -0.441,0.353 -1.24,0.132 -1.37,0.662 l 2.65,3.04 c 0.221,0.0441 0.485,-0.0441 0.618,0.132 l 0,0.221 c -2.78,1.46 -3.44,-2.25 -5.07,-3.31 -0.176,0.927 -0.0883,1.9 -0.0883,2.87 0.265,0.309 1.15,-0.221 0.927,0.529 l -3.18,0 0,-0.309 0.662,-0.132 0.0883,-6.53 c -0.221,-0.266 -0.971,0.0883 -0.75,-0.53 2.29,0.265 5.56,-0.882 6.57,1.59 z m -4.24,-1.06 0.0891,2.82 c 0.618,0.0891 1.06,-0.131 1.59,-0.176 0.75,-0.353 1.06,-1.19 0.75,-1.94 -0.398,-0.972 -1.55,-0.662 -2.43,-0.706 z"
       id="path94"
       inkscape:connector-curvature="0"
       style="fill:#d44500;fill-opacity:1" /><path
       d="m 120.9,125.4 c 0.176,0.176 0.617,0.045 0.617,0.397 l -0.176,0.221 c -0.927,-0.265 -2.12,0.0891 -2.87,-0.309 l 0.838,-0.221 c -0.221,-0.882 -0.573,-1.85 -1.06,-2.56 l -2.34,0.221 -0.838,2.34 c 0.309,0.176 0.706,0.0882 1.06,0.0882 l 0,0.353 c -0.751,-0.176 -1.63,0.309 -2.43,0 l 0,-0.353 c 0.618,0.221 0.882,-0.309 1.06,-0.706 l 2.52,-6.49 0.971,0 2.65,7.02 z m -3.71,-5.21 -0.838,2.34 1.81,0 c -0.354,-0.793 -0.485,-1.72 -0.971,-2.34 z"
       id="path96"
       inkscape:connector-curvature="0"
       style="fill:#d44500;fill-opacity:1" /></g><g
     style="fill:#6f777d"
     id="g114"
     transform="matrix(0.882,0,0,0.882,-170.1,-248.6)"><path
       inkscape:connector-curvature="0"
       style="fill:#d44500;fill-opacity:1"
       id="path116"
       d="m 322,478 c 0.25,-1.9 0.35,-4.2 -1.55,-5.25 -1.9,-1.7 -4.65,-2.1 -6,-4.35 0.5,-0.55 1.1,0.101 1.8,-0.1 4.65,1.75 10.1,2.5 14.2,5.9 2.35,0 5.25,0.25 7.55,1.2 0.399,-0.3 0.55,-0.75 0.85,-1.1 0.45,-0.75 1.6,-1.5 1.9,-2.3 -4.1,-0.95 -8.7,-0.8 -12.4,-2.85 -2.1,-1.5 -4.15,-3 -6.95,-2.3 -0.899,-0.399 -1.85,-0.6 -2.65,-1.2 0.05,-0.3 0.399,-0.3 0.6,-0.449 2.55,-0.45 4.6,-3.2 7.45,-1.8 2,2.45 4.5,4.5 7.45,5.5 2.45,1.55 5.4,0.95 8.15,1.9 3.15,0.1 6.85,0.55 9.45,-0.7 -1.5,-1.45 -2.9,-2.6 -4.3,-4.1 -2.5,-4.5 -7.3,-6.5 -12.1,-7.05 l 1.05,-0.95 c 1.5,-0.7 2.45,-1.95 3.85,-2.8 -0.149,0.35 -0.1,1.2 -0.1,1.6 0.35,0.85 1.5,0.75 2.25,0.6 0.9,-0.399 0.35,-1.3 0.5,-1.95 l 1.45,0.25 c 1.85,-1.1 3.3,1.15 5,1.55 4.05,2 9,1.65 13.7,1.35 2.4,-0.5 4.85,-0.95 7.2,-1.6 0.4,-0.2 1.1,-0.351 1.2,-0.8 -1.55,-2.25 -3.95,-4.45 -6.5,-5.3 -6.35,-2.75 -14.2,-2.25 -20,1.45 l -0.399,-0.35 c 0.25,-0.101 0.449,-0.351 0.75,-0.25 1.15,-2.05 3.6,-1.25 5.25,-2.3 1.75,-0.25 3,-0.45 4.7,-0.7 1.9,-0.65 3.7,-0.601 5.5,-1.45 2.95,-0.05 6.55,0.25 9.4,-0.7 4.25,-0.7 7.2,-3.95 10.9,-6 0.699,-0.35 1.6,-0.45 2.15,-1 -2.55,-2.15 -5.6,-4.05 -8.85,-4.4 -3.3,-1.05 -7,-0.551 -10.6,-0.5 -0.05,-1.65 2.2,-1.3 2.55,-2.9 3.45,-0.35 6.7,-0.2 9.95,-1.4 1.5,-0.449 3.05,-1 4.2,-2.05 5,-2.1 8.8,-7 11.2,-11.6 -0.05,-0.801 0.95,-1.7 0.25,-2.15 -4.6,0.5 -9.7,-1.65 -13.8,0.45 -0.5,0.1 -0.851,0.85 -1.45,0.399 2.3,-3.25 2.55,-7.6 2.65,-11.4 2.2,-1.5 4.1,-3.85 5.3,-6.25 0.899,-3.25 4.1,-5.25 4.4,-8.75 -0.1,-3.1 0.7,-5.5 0.75,-8.3 l -0.6,0.1 c -2.2,1.6 -5.3,1.35 -7.7,2.05 0.15,-1 1.4,-1.6 1.45,-2.65 1.6,-2.7 2.75,-5.6 3.1,-8.85 0.55,-3.85 -0.35,-6.05 -1.05,-9.5 l -0.6,0 c -5.25,1.35 -8.9,6.75 -10.4,11.6 l -0.1,0 0,0.351 c -0.95,1.3 -1.7,2.8 -2.4,4.05 l -0.25,-0.2 0.15,-2.2 c -0.45,-0.899 -1,-1.8 -1.1,-2.85 2.6,-1.95 3.85,-4.8 5.5,-7.45 3.25,-4.15 2.55,-11 1.45,-15.7 -0.399,-1.45 -1.65,-2.5 -1.55,-4.1 -0.45,1 -1.5,1.75 -1.9,2.75 -1.9,1.6 -3.15,3.5 -4.45,5.65 -0.2,-1.05 -0.601,-2 -0.601,-3.1 0.851,-7.35 -1.2,-14.4 -5.65,-20 l -0.25,0 c -0.7,2.2 -2.45,2.7 -3.95,4.55 -0.7,0.85 -0.851,2 -1.45,2.9 -0.75,3.1 -0.1,6.5 -0.1,9.7 0.1,0.7 0.699,1.45 0.1,2.05 -1.15,-0.75 -2.2,-1.55 -3.1,-2.4 0.55,-0.301 1.15,-0.301 1.55,-0.95 -0.05,-0.5 0.1,-1 -0.101,-1.45 -0.399,-0.8 -1.3,-0.9 -2.2,-0.85 0.3,-5.55 -1.8,-10.7 -3.6,-15.7 -0.55,-0.7 -0.5,-1.65 -0.95,-2.4 -1.45,-3.7 -5.05,-5.8 -8.05,-8.4 -0.45,-0.4 -0.45,-1.25 -1.2,-1.3 -1.95,5.3 -2.5,11.9 0,17.2 0.9,2.1 2.35,4.1 2.8,6.25 -1.65,-0.5 -3.25,-1.35 -4.45,-2.55 0.05,-1.5 -1.35,-2.5 -2.4,-3.1 -0.45,-4.65 -1.65,-9.5 -4.2,-13.2 -2.25,-5.9 -7.85,-11.1 -14,-12.6 -0.649,5.1 0.4,10.2 3.25,14.2 -0.399,0.2 -1,0.149 -1.45,0 -4.05,-1.85 -8,-3.8 -13,-3.5 -1.85,0.55 -3.5,0.45 -5.5,0.6 0.05,0.8 0.9,1.1 1.45,1.45 1.95,1.45 2.1,3.75 2.6,5.65 -2.2,-0.7 -4.35,-1.6 -6.8,-1.55 -0.95,-0.449 -2.2,-0.149 -3,-0.75 3.15,-4.1 7.1,-8.45 7.2,-13.9 l -0.4,0 c -1.9,1.3 -4.7,0.5 -7.05,0.7 -4.1,1.65 -7.65,4.55 -11.2,7.6 -3.1,2.95 -7.5,3.35 -10.4,6.8 -1.5,2.15 -1.6,5.1 -4.05,6.6 -0.55,-0.301 -1.05,0.05 -1.45,0.399 -0.4,0.3 -0.6,1.05 -0.5,1.55 -0.15,0.4 -0.6,0.75 -0.95,0.601 0.65,-3.15 3.2,-5.55 4.2,-8.55 1.25,-2.6 -0.25,-5.55 -0.1,-8 0.1,-0.75 0.75,-1.5 0.45,-2.2 -2.75,1.1 -5.95,1.1 -8.25,3.25 -5.8,6.8 -9.05,15.2 -9.4,24.4 1.05,0.95 0.1,2.25 -0.101,3.25 -0.149,1.05 0.65,1.4 1.2,2.05 0.1,0.45 -0.2,0.7 -0.25,1.1 -2.4,1.7 -3.9,4.65 -6,6.6 -0.3,-0.3 -0.5,-0.6 -0.6,-1 2.2,-1.95 3.5,-4.95 4.45,-7.8 0.85,-6.05 -1.1,-11.4 -3.6,-16.6 -0.55,-0.65 -0.35,-1.8 -1.1,-2.15 -3.35,4.45 -6,9.25 -5.4,15.1 -0.85,1 -1.7,-0.75 -2.75,-0.7 -0.3,0.149 -0.25,0.45 -0.25,0.7 -1.85,3.15 -2.25,7.05 -2.5,10.7 1.1,4 1.45,8.5 2.3,12.5 -2.5,-2.8 -5.65,-4.15 -8.2,-6.5 -0.85,-0.449 -1.3,-1.7 -2.15,-1.55 -2.2,4.2 -1.6,9.15 0.6,13.2 1,2.8 4.45,4.25 5.05,7.2 0.95,3.4 4.45,5.15 6.95,7.3 l 0,0.35 c 1.8,2.9 2.95,6.25 2.9,9.75 l -1.1,-2.55 c -0.7,-1.4 -1.4,-2.9 -2.25,-4.3 -2.65,-3.25 -5.7,-5.65 -9.25,-7.55 -3.65,-2.55 -8.3,-1.5 -12.5,-2.75 0.6,6.85 6.8,12.4 12.2,16.3 3.45,1.4 6.6,3.7 10.4,4.3 1.2,0.3 2.55,0 3.5,-0.2 l 0.1,1.55 c -1.15,1.95 -2.15,3.95 -1.9,6.45 -0.15,0.601 -0.15,1.3 -0.5,1.7 -0.05,0.7 0.25,1.5 -0.2,2.05 -2.45,-2.5 -5.5,-4.2 -8.55,-6 -2.05,-1.35 -4.3,-1.05 -6.6,-0.75 -2.55,0.301 -5,0.801 -7.2,1.95 0.55,0.9 1.75,1.55 2.4,2.4 4.65,6.4 12.1,11.8 19.8,12.6 0.8,0.2 2.1,-0.1 2.3,1.05 -0.3,0.551 -0.75,0 -1.1,0 -2.95,-0.149 -6.3,-1.8 -9.25,-0.1 -0.3,0.4 0.2,0.8 0.5,1.1 1.1,1.85 1.4,4.1 2.5,5.85 2,3.6 5.05,6.85 9,7.95 3.55,0.449 6,3.65 9,5 0.45,0.3 0.95,0.3 1.35,0.6 2.6,0.15 4.75,0.9 6.35,3.15 -3.2,-0.051 -5.75,-1.4 -9,-1.7 -5.05,-1.75 -9.55,1.35 -13.8,3.25 l 0,0.5 c 3.65,1.8 6.4,5.1 9.85,7.05 5.1,1.7 11.2,3.35 16.6,1.8 2.8,0.7 5.6,-0.1 7.95,-1.2 0.25,0.601 0.851,0.301 1.2,0.75 -1.25,0.9 -3.1,0.95 -4.45,1.9 -4.75,1.25 -6.9,5.95 -9.85,9 2.15,0.4 4.1,0.2 6.25,0.6 5.45,0.551 10.5,0.551 15.4,-1.7 4.15,-0.601 7.15,-3.25 10.7,-5.4 0.7,-0.2 1.05,0.4 1.55,0.85 1.85,0 3.3,-0.35 4.45,1.2 -0.8,1.95 -2.75,0.4 -4.1,1.2 -2.2,1.05 -4.45,2.05 -6.85,2.65 -3.8,1.7 -8.1,2.2 -11.8,4.3 -0.55,1.35 -1.15,2.85 -1.05,4.35 l 0.7,0 c 3.2,-1.5 6.55,-2.45 9.95,-3.35 0.899,0.05 2.25,-0.25 3.15,0.2 0.75,0.149 1.35,0.3 2,-0.101 2,-2.4 4.9,-2.65 7.7,-3.1 0.25,0.7 -0.4,1.35 -0.35,2.15 -0.351,1.35 0.2,3.05 -0.351,4.2 -1.15,-0.45 -1.5,-1.75 -2.3,-2.4 -1.15,-0.45 -2,0.6 -3,0.949 -0.8,0.801 -2.05,1.55 -2.5,2.5 2.65,1.65 5.05,4.65 8.4,4.6 1.7,0.2 3.55,-0.2 4.55,-1.8 2.85,-2.8 -0.1,-7.15 2.05,-10.2 0.65,0.05 1.05,0.75 1.65,0.8 1.85,2.7 5.4,1.6 7.2,4.2 0.2,0.75 1.5,0.899 1.2,1.7 -2.45,-1 -5.4,-0.801 -7.55,0.699 -0.75,1.35 -0.55,3.35 -0.6,4.7 l 1.55,0 c 2.85,-0.75 4.9,-0.05 7.8,-0.6 m -84,-85 c -6,-3 -12,-8 -15,-14 -0.101,-0.551 -0.25,-0.95 -0.101,-1.55 3.55,1.85 8.45,0.95 12,3.1 3.6,1.75 6,5.4 8.75,8.8 0.25,0.9 1.15,1.7 1.3,2.75 -4.05,-3.8 -9.15,-5.5 -13.4,-9 -2.3,-1.75 -4.65,-3.3 -7.1,-4.7 -0.2,0.101 -0.1,0.351 -0.1,0.5 5.7,3.75 10.2,8.85 16.3,11.6 1.9,0.95 3.35,3.05 4.55,4.4 -2.7,0.301 -5.5,-1.2 -8.05,-2.4 z m 115,54 c 1.4,-0.8 3.5,-0.399 5.15,-0.85 5.65,-0.25 10.6,1.25 14.4,5.4 -2.85,-1.1 -6.25,-1.7 -9.45,-2.3 -4.55,-0.6 -9.4,-1.2 -14,-1.05 2,-1 3,-1 4,-1 z m 18.6,4.9 c -2.7,1.1 -6.1,1.4 -9.1,1.55 -2.15,0.4 -4.3,-0.649 -6.6,-0.45 -0.75,-0.25 -1.4,-0.5 -2.2,-0.6 -1.65,-0.75 -3.35,-1.25 -4.9,-2.3 l -0.1,-0.7 c 7.8,0.451 15.7,1.3 22.9,2.5 z m 6.5,-41.8 c -0.15,1.6 -1.9,2.3 -3.15,2.65 -0.4,-0.25 -0.5,-0.051 -0.95,-0.15 0.351,-0.6 0.7,-1.2 1.1,-1.8 1.7,-1.9 3.05,-3.85 3.95,-6.2 0.351,-0.95 0.7,-1.85 1.05,-2.8 l -0.2,-0.2 0.45,-0.5 0.35,0.35 c 0.249,3.2 -1.05,6.15 -2.6,8.65 z m -7.1,-25.3 c -4.75,-4.7 -11,-5.65 -15.8,-10.2 -2.4,-1.5 -4.65,-3.75 -7.3,-4.95 -0.4,0.851 0.949,0.8 1.3,1.45 4.85,3.9 9.35,8.15 15,10.6 2.7,1.4 4.65,3.9 7.55,4.8 l 0.4,0.351 c -7.15,1.6 -11.4,-4.35 -17.3,-6 -4.85,-2.15 -6.9,-7.15 -8.4,-11.6 5,-2.65 9.8,1 14.1,2.85 4.95,2.7 8.2,6.8 11.9,11.1 -0.1,1.55 2.6,1.45 1.8,3.15 -0.45,0.55 -0.95,0.85 -1.7,0.7 0,-0.3 -0.449,-0.95 -0.1,-1.45 0,-1 -1,-1 -2,-1 z m -3.95,-9.15 c 1.95,0.601 4.05,1.35 5.4,2.9 l 0.1,3 c -1.3,-1.8 -3.5,-4.1 -5.5,-5.9 z m 6.85,12.8 c 0.5,-0.1 0.399,-0.8 0.95,-0.75 0.149,0.05 0.35,0.15 0.6,0.15 0.4,0.45 0.85,1.05 0.45,1.65 -0.4,0.45 -1.05,1.2 -1.8,0.75 -0.3,-0.499 -0.75,-1.3 -0.2,-1.8 z m 0.7,11.9 c 0.449,0.75 1,1.4 1.3,2.15 -0.7,0.4 -1.35,1.05 -2,1.6 0.35,-0.851 0.95,-2.3 0.7,-3.75 z m 3.5,2.65 1.4,-0.95 c -1.1,1.35 -1.65,3 -2.6,4.45 -0.351,2.25 -2.55,3.05 -3.4,5.15 -1.25,-1 -0.55,-2.75 -0.6,-4.2 0.95,-2.15 2.7,-4.2 5.2,-4.45 z m 12.2,-24.6 0.851,-0.601 c -0.25,2.9 -0.4,6.35 -1.55,9 -0.551,1.45 -1.55,2.25 -2.4,3.6 -2.1,3.65 -3.95,8.6 -8.3,10.2 l -0.45,0 c 0.45,-1.55 0.95,-3.35 1.45,-5.05 1.45,-3.15 2.3,-6.85 5.15,-9.25 1.6,-2.7 2.25,-6.2 5.25,-7.9 z m -1.55,0.349 c -2.05,0.65 -2.3,2.9 -3.45,4.35 -1.9,2.55 -4,5.05 -5.2,7.9 -1.55,2.8 -2.2,6.1 -3.6,8.9 -0.85,-0.55 -1.2,-1.65 -1.65,-2.55 0.05,-1.35 0.3,-2.65 0.699,-3.85 -0.1,-1.25 0.75,-2.4 1.1,-3.6 1.2,-3.3 3.45,-6.3 5.85,-9 1.75,-1.6 4.05,-1.65 6.25,-2.15 z m -1.55,-11.6 c -1.3,6.15 -3.5,12 -8.75,16.4 l -2.15,0.5 c -0.1,-0.949 0.551,-1.95 0.801,-2.9 0.6,-1.2 1.3,-2.4 1.7,-3.7 1.25,-2.75 1.85,-5.75 3.25,-8.4 0.351,-1.8 1.65,-3.25 2.05,-5.05 l 0.1,0 c 0.65,-1.55 1.5,-3.15 2.5,-4.45 0.699,2.45 0.149,5.1 0.499,7.55 z m -13.4,11 c 0.3,-2.1 1.2,-4 2.15,-5.85 2.8,-3.95 3.3,-9.5 8.3,-11.9 0.1,-0.25 0.4,-0.5 0.7,-0.5 -3.7,6.4 -5.6,13.5 -8.6,20.2 -0.55,0.8 -0.35,2.15 -1.6,2.5 -1.55,-0.651 -0.949,-2.95 -0.949,-4.45 z m -0.7,-2.05 c -2.85,-2.85 -5.9,-5.55 -9.25,-7.65 -1.85,-0.6 -3.6,-1.8 -5.65,-1.55 -0.15,0.85 0.8,0.45 1.2,0.7 5.2,1.5 9.75,5.8 13.4,9.85 -1.9,-1.65 -4.05,-2.9 -6.5,-3.35 -3.55,-1.55 -6.3,-4.95 -9.85,-6.5 0.649,-1.25 2.35,-1.4 3.35,-1.9 1.45,0.15 2.95,0.05 4.1,0.95 0.801,0.25 1.55,0.7 2.3,1.05 2.9,2.35 5.45,5.05 6.95,8.4 z m 6,-31 c 1.25,3.6 1.1,8.25 0.25,12 -1.35,3.25 -3.4,6.2 -5.8,9 -0.15,-0.899 -0.25,-1.6 0.149,-2.4 0.45,-1.1 3.3,-1.5 1.9,-3.5 -0.2,0.05 -0.1,-0.3 -0.1,-0.45 1.25,-3.15 2.55,-6.3 2.85,-9.85 0.601,-1.45 0.301,-3.3 0.751,-4.8 z m -6.25,11.4 c -0.1,-4.35 1.1,-8.25 4.45,-11 l 0.85,-1.3 c -0.6,5.6 -1.5,10.6 -3.85,15.4 -0.65,0.551 -2.25,1.2 -1.45,2.55 0.6,0.449 -0.1,1 -0.35,1.4 -0.351,0.5 -1.05,0.101 -1.45,0.4 -0.15,-0.75 -0.8,-1.85 0.1,-2.4 0.25,-2.05 4.2,-2.8 1.7,-5.05 z m -7,-26 c 1.95,2.1 3.15,4.9 4,7.7 0.6,3 0.85,6.45 0.2,9.7 2.55,4.5 0.45,9.65 -0.8,14 -1.95,-5.1 -1.8,-11.7 -1.6,-17.3 -0.45,-0.45 -0.25,-1.15 -0.45,-1.65 -0.3,-1.2 -0.949,-2.35 -0.75,-3.6 -0.35,-1.9 0.15,-3.85 -0.35,-5.8 0.301,-1.05 -0.499,-1.9 -0.249,-3.1 z m -0.95,-0.35 c 0.15,1 0.3,2.15 0.15,3.1 l 0.2,0.25 c -0.65,6.15 1.75,11.8 1.2,18 0,2.9 0.551,6.3 0.5,9.35 -4.55,-6.2 -5.6,-14.1 -6,-21.7 0.351,-3.15 0.251,-7.4 3.95,-9 z m -31.6,21.7 c 9.6,0 18.9,2.05 28,3.95 -0.3,0.6 -1.35,0.35 -1.9,0.85 -1,0.3 -2,0.6 -3,0.85 -3.95,1.5 -7.6,0.25 -11.6,-0.25 -4.7,-0.55 -8.25,-3.85 -12.5,-5.5 1.65,-1.8 3.7,-2.35 5.8,-3.25 5.5,-0.75 9.45,0.15 14.5,1.55 3,1.35 6.2,2.1 8.9,4.2 -0.399,-0.1 -1.2,0.2 -1.6,-0.25 -5.3,-1.25 -10.7,-2.35 -16.4,-2.75 -3.25,-0.6 -6.5,-0.3 -9.85,-0.25 -0.25,0.101 -0.55,0.4 -0.6,0.601 l 0.25,0.249 z m 17.8,-27.2 c 1.3,3.45 2.75,6.8 3.45,10.4 l 0.25,0.25 c 0.15,1.85 0.7,3.55 0.5,5.5 -2.4,-3.45 -4.5,-7 -6.15,-10.8 -2,-4.3 -3.15,-9.15 -5,-13.4 3.05,1.8 6.3,4.35 6.95,8 z m -8.55,1.8 c -0.6,-3.1 -0.899,-6.35 0.25,-9.35 1.65,2.1 1.5,5.3 3,7.45 1.65,4.9 3.8,9.55 6.5,14.1 0.4,1.4 2,2.55 2.15,3.85 l -0.25,0.2 c -6.85,-2.8 -9.35,-10.1 -11.6,-16.2 z m -0.8,10.8 c 0.05,0.4 -0.35,0.5 -0.5,0.75 -3.2,1.15 -6.25,2.55 -9.7,3 -4.9,0.5 -9.6,-0.2 -13.8,-1.7 3.6,-0.699 7.2,-0.55 10.9,-1.05 4.35,0 8.75,-1 13.1,-1 z m -2.8,-1.9 c 0.3,-0.051 0.5,0.1 0.75,0.25 -0.9,0.399 -1.7,-0.101 -2.65,0.25 -5.5,1.55 -11.6,1.35 -17.6,2 3.45,-2.35 6.95,-5 11.6,-4.05 2.7,1.05 5.5,-0.199 7.9,1.55 z m -15,-22 c -0.95,-2.3 -1.1,-4.85 -0.5,-7.3 3.15,1.1 5.95,2.7 8.2,5.5 2.55,3.6 4.1,7.6 6.1,11.4 0.55,1.9 0.35,3.7 1.1,5.5 l -0.6,-0.1 c -3.95,-3.75 -5.7,-8.6 -8.8,-12.8 -1.65,-2.95 -3.95,-5.6 -4.9,-8.85 -0.2,-0.25 -0.5,-0.1 -0.7,-0.149 -0.3,0.8 0.65,1.4 0.601,2.3 2.1,4.6 5.3,8.65 7.4,13.3 -1.55,-1.45 -3.4,-2.8 -5.25,-3.85 -1,-1 -1,-3 -2,-5 z m -16.4,2.4 -0.35,-0.351 c 2.35,-0.35 4.8,-0.35 7.45,0 4.35,0.55 7.7,3.55 12,4.3 4.65,1.9 7.5,6.9 11.6,9.85 l 0.1,0.35 c -1,-0.3 -1.85,-1.2 -2.75,-1.8 -4.6,-3.6 -11.1,-2.5 -15.6,-6.45 -3.5,-2.4 -7.65,-3.25 -11.2,-5.55 -0.6,0.099 -0.9,0.049 -1.35,-0.35 z m 1.1,1.2 c 0.851,0.351 1.65,0.75 2.4,1.3 5.7,2.25 10.4,7.15 16.6,8.3 3.1,0.85 6.4,1.95 9.25,3.85 l 1.55,0.7 c -0.399,0.7 -1.45,0.7 -2.15,0.5 -3.2,-0.7 -6.6,-0.95 -9.6,-2.15 -3.9,-0.25 -6.45,-4 -10.4,-4.2 -3.15,-0.801 -6.65,-3.35 -7.05,-6.85 l -0.6,-1.45 z m 1.2,6.25 c 0.45,0.25 1.45,0.65 0.7,1.3 -1.25,1.4 -3.75,1.35 -5.4,0.949 -3.85,-0.149 -7.45,-1.05 -11.1,-1.55 1.45,-0.85 2.35,-2.1 3.95,-2.65 4.5,-0.601 7.95,0.899 11.9,1.95 z m -0.35,3.25 c -1.6,3.45 -5.55,3.7 -9,3.8 l -0.4,-0.2 c -3,0.05 -5.9,-1.45 -8.75,-2.4 -0.9,-0.25 -1.8,-0.5 -2.75,-0.75 1.15,-0.6 2.7,-0.7 3.95,-1.3 2.95,-0.6 5.3,1 8.15,0.95 l 1.6,0.25 c 2.25,-0.151 5,0.299 7.2,-0.351 z m -21.4,-1.45 c -3,0.75 -6.6,2.2 -9.7,0.6 0.2,-0.75 1.05,-1.05 1.55,-1.55 2.35,-1 4.75,-1.8 6.85,-3.4 3.3,-3.2 7.35,-5.3 10.9,-7.9 1.5,-0.851 3.15,-1.55 4.7,-2.3 l 1.45,-0.949 c -2.4,6.75 -8.3,13.8 -15.8,15.5 z m -11,-1.1 c 0.45,0.05 0.05,-0.45 0.35,-0.6 1.3,-2.05 3.15,-4.5 5.65,-5.05 5.65,-2.45 9.6,-8.35 15.4,-10.6 1.9,-0.45 4.05,0.4 5.75,-0.25 -0.3,0.9 -1.55,1.1 -2.15,1.9 -6.45,2.2 -11.6,7.3 -17,11.3 -2.2,1.65 -5.1,1.85 -7.1,3.85 -0.149,0.45 -0.7,0.101 -0.7,0.601 -0.499,-0.351 0.051,-0.651 -0.099,-1.1 z m -0.4,9.75 c 4.35,4.7 11.2,3.05 16.4,6 0.7,0 1.3,0.8 1.9,0.351 -0.4,-0.851 -1.45,-1.2 -2.15,-1.8 -1.3,-0.399 -2.35,-1.35 -3.85,-1.35 -2.3,-0.65 -4.55,-0.5 -6.7,-1.55 -2.6,-1 -4.85,-2.7 -7.35,-3.95 1.2,-0.85 3.3,-0.4 4.8,-0.35 0.85,0.35 1.7,0.699 2.55,1.05 3.2,1.6 6.6,2.8 9.95,4 1.5,1.15 2.45,2.45 3.35,3.95 l 0,0.449 c -3.8,0.851 -7.95,0.7 -11.4,-0.8 -4.05,-1.3 -8.05,-3.4 -10.8,-7 1.25,-0.499 2.25,0.701 3.35,1 z m -19,1 c 1,-6.3 3.4,-12.1 7.2,-17.2 1.9,-1.95 4.15,-3.4 6.75,-3.75 l 0.25,0.25 c 0.95,4.15 0.6,8.5 -2.2,11.8 -2,4.6 -3.35,9.7 -7.2,13.4 -0.65,0.25 -1.5,0.5 -2.25,0.2 -0.2,-0.1 -0.1,-0.35 -0.15,-0.6 0.35,-0.95 0.75,-1.85 1.35,-2.75 2.7,-3.3 2.25,-7.95 4.3,-11.5 1.15,-1.85 1.65,-4 3,-5.75 0.3,-1.65 2,-2.8 2.75,-4.2 -0.1,-0.3 -0.5,-0.3 -0.7,-0.15 -3.35,4.1 -5.75,8.6 -7.55,13.4 -0.5,2.55 -1.3,4.95 -2.75,7.05 -0.65,1.3 -1.4,2.55 -2.3,3.75 -0.85,-1 -0.35,-2.35 -0.5,-3.75 z m -2.5,15.8 c 1.05,-1.25 1.4,-2.95 2.75,-3.95 l 0.25,-0.5 c 0.8,0.3 1.5,0.85 1.8,1.55 -3.95,1 -5,5.6 -8.3,7.6 0.15,-2 1.5,-4.1 3.5,-4.7 z m 9.85,-1.1 c -1.55,-0.5 -2.95,-1.85 -3.95,-3.1 l 0.35,0.25 c 6.25,-0.2 12.8,0.55 18.6,2.15 l 1.45,-0.1 c 0.15,-0.25 -0.25,-0.75 -0.6,-0.75 -3.1,-0.2 -5.5,-2.05 -8.65,-2.05 -3.2,-0.75 -6.95,-0.301 -10.1,-1.2 -0.4,0 -0.851,0.1 -1.2,-0.101 4.2,-3.85 11.7,-3 16.4,-0.699 2.15,0.949 4.6,2.7 5.65,4.9 -5.5,3.65 -11.9,1.75 -18,0.702 z m 3.1,2.4 c -0.101,1.15 -1.15,2.25 -2.15,3 -2.55,2.35 -5.85,2.85 -9,3.75 -1.15,-0.15 -2.1,0.25 -3.25,0.1 0.45,-0.85 1.45,-1.2 2.15,-1.8 2.95,-1.8 5.95,-3.35 8.8,-5.4 1.2,-0.051 2.3,0.6 3.45,0.35 z m -5.4,-0.95 c -3.05,2.3 -6.3,4.65 -9.7,6.35 -0.2,-0.2 -0.35,-0.649 -0.149,-0.95 2.4,-2.55 4.45,-6.3 7.8,-7.65 0.949,0.648 1.45,1.35 2.05,2.25 z m -13,-22.8 c 0.601,1.6 1.4,3.35 2.3,4.95 0.45,1.4 1.05,2.7 1.3,4.2 0.149,2.5 0.35,5.15 -0.601,7.55 -0.2,1.8 -1.45,3.2 -2.5,4.65 -0.649,-0.6 0.2,-1.55 -0.25,-2.4 -0.1,-5.75 0.7,-11.5 0.25,-17.1 l -0.25,-0.25 c -0.35,0.7 -0.3,1.55 -0.5,2.3 -0.7,4.7 -1.05,9.85 -1.05,14 -0.6,-1.7 -2.2,-2.95 -2.9,-4.55 -0.399,-5.05 0.651,-9.85 4.2,-13.4 z m -3.6,49.9 c -0.3,1.1 -0.35,2.3 -0.85,3.35 -1.95,0.25 -3.75,-1.65 -5.15,-3.15 -0.7,-1.05 -2,-1.95 -1.9,-3.35 -0.7,-2.55 -3.85,-3.6 -4.7,-6 -1.9,-3 -2.85,-6.5 -2.4,-10.3 1.9,2.2 2.75,4.15 4.9,6.25 3.1,5.1 6.05,10.2 7.7,15.9 0.25,0.15 0.351,0.551 0.7,0.45 1,-0.35 -0.45,-0.8 0,-1.3 -1.05,-5.35 -4.1,-9.95 -6.7,-14.6 -1.5,-1.8 -3,-3.75 -4.3,-5.75 l -1,-1.7 c 3,2.5 6.4,4.5 9.4,7.2 0.649,2.5 2.9,4.3 3.6,6.75 0.95,1.75 0.65,4.2 0.7,6.25 z m -0.1,-16.7 c 0.85,-6.55 -2.95,-12.2 -2.8,-18.9 -0.2,-0.149 -0.05,-0.6 -0.45,-0.45 -0.5,1.15 0,2.3 -0.5,3.45 -0.45,6.1 3.6,11.2 2.3,17.2 0.25,2.8 0.85,5.35 1.8,7.8 -3.2,-3.6 -5.2,-9.9 -5.15,-16 -0.8,-2.5 -1.2,-5.6 -0.5,-8.25 0.45,-1.65 0.7,-3.3 1.8,-4.7 2.35,1.45 4.5,3.95 5.5,6.6 3.15,5.55 3.25,14.4 1.35,20.3 -0.75,1.1 -1,2.8 -2.4,3.2 -0.149,-0.25 -0.35,-0.5 -0.25,-0.8 l 0.351,0 c 0,-2 -1,-5 -1,-8 z m 2.15,29.6 c 0.6,0 1.3,0.3 1.45,0.95 0.15,0.5 -0.25,0.9 -0.6,1.1 -0.55,0.25 -1.15,0 -1.6,-0.25 -0.3,-0.75 -0.2,-1.7 0.75,-1.8 z m -17.6,11.2 c 5.75,-1.25 8.95,4.05 13,6.5 1.4,1.1 1.6,2.75 1.8,4.4 -0.6,0 -0.9,-0.6 -1.45,-0.699 -3.85,-2.55 -7.85,-4.5 -11.4,-7.3 -2.25,-1.6 -4.7,-2.2 -7.55,-2.05 1.75,-1 3.85,-0.05 5.65,-0.849 z m 0.95,8.5 c -2.4,-2.05 -4.45,-4.5 -6.45,-6.8 0.65,-0.051 1.55,0 2.25,0.199 3.3,1.3 6.05,3.65 9.15,5.4 l 2.25,1.2 c 2.3,2.2 6.35,3 7.35,6.4 -5.5,-0.599 -10.2,-3.15 -14.6,-6.4 z m 16,-1 c 0.05,-1.4 0.4,-2.8 0.35,-4.3 0.601,-2.15 0.8,-4.65 2.55,-6.15 l 2.4,-3.35 -0.5,1.35 -0.1,7.9 c -0.601,2.8 0.05,5.35 -0.15,8.15 0.55,3 0.9,6.15 1.1,9.15 -1.25,-0.35 -2.1,-1 -3.15,-1.95 -2.25,-3 -2,-7.2 -2.5,-10.8 z m 6.85,-34.4 c 1.2,-3.45 3.9,-6.95 7.2,-9 0.75,-0.649 1.15,-1.4 2.15,-1.65 -1.85,3.85 -4.55,7.8 -6.5,11.8 -1.45,3.9 -3.45,7.6 -3.8,11.9 l 0.2,0.25 c 0.95,-1.2 1.6,-2.75 2.2,-4.2 0.2,-1.65 1.35,-2.9 1.4,-4.55 1,-2.25 2.2,-4.45 3.25,-6.6 0.25,-0.3 0.5,-0.85 0.75,-1.2 1.8,-1.95 2.2,-4.5 3.1,-6.85 0.7,1.55 1.05,3.5 1.2,5.4 0.2,4.75 -2.75,8.2 -4.3,12.2 -1.6,2.5 -2.65,5.85 -5.55,7.2 -0.629,0.419 -1.47,0.387 -2.14,0.777 -0.092,0.131 -0.2,0.239 -0.364,0.272 0.112,-0.112 0.236,-0.197 0.364,-0.272 0.188,-0.267 0.285,-0.659 0.486,-0.928 -0.1,-0.7 -0.3,-1.6 -1.1,-1.8 -0.7,-0.15 -1.25,0.149 -1.7,0.75 1.3,-4.45 0.75,-9.45 3.25,-13.4 l -0.1,-0.149 z m -1.1,20.8 c 0.75,0.3 1.05,1.25 1.55,1.9 0.75,2.35 3,4.1 2.3,7.1 -0.149,5.85 1.45,11.8 -0.5,17.6 -0.35,0.6 -0.649,1.3 -1.2,1.8 -0.6,-1.2 -0.3,-2.9 -0.7,-4.3 0,-0.9 -0.5,-2 -0.5,-2.9 -0.351,-0.75 -0.15,-1.45 -0.45,-2.25 -0.65,-4.5 -0.25,-9.85 -0.35,-14.6 -0.6,-1.25 0.05,-3 -0.15,-4.4 z m 4.8,42.2 c -2.05,-2.65 -5.15,-4 -8.25,-4.65 -3.3,-1.45 -6.75,-4 -8.05,-7.45 -0.6,-1.7 -1.7,-3.2 -2.3,-4.9 8.3,4.1 16.4,10 23.1,17.2 0.95,0.6 1.55,1.75 2.65,2.15 -1.95,-0.551 -5.1,-0.75 -7.2,-2.3 z m -3.7,-9.1 c -4.1,-3.55 -8.9,-6.05 -13.7,-8.15 1.55,-0.199 3.35,-0.199 4.95,0 1.25,0.45 2.65,0.5 3.8,1.2 3.8,0.75 5.05,4.5 8.4,6.25 4.5,1.6 6.3,6.65 7.6,10.8 -3.1,-3.6 -7,-7.15 -11,-10.1 z m -7.45,17.2 c 4.1,0.649 9,-0.4 13,1.35 4.05,1.4 8,2.95 12.2,4.2 1.5,0.05 2.9,0.75 4.3,0.8 -1.85,1.8 -5.25,0.55 -7.55,1.1 -7.35,0.7 -14.7,-1.45 -20.3,-6.5 -0.9,-0.8 -2.25,-0.6 -3.1,-1.65 3.55,-1.25 6.85,-3.6 11.2,-2.65 4.1,0.65 8,2.1 12.1,2.4 2.45,1.2 5.05,2 7,4.3 0.45,0.7 1.2,1.3 1.4,2.05 -0.95,-0.45 -2.05,-0.55 -3.1,-0.85 -4.2,-1.3 -8.45,-2.6 -12.6,-4.05 -4.15,-1.65 -8.5,-1.35 -13.1,-1.2 -0.7,-0.2 -1.6,-0.15 -2,0.25 l 0.701,0.449 z m 27,-2 c -4.3,-5.1 -6.5,-11.1 -8.4,-17.1 -0.7,-4.45 1.6,-8.5 2.15,-12.9 0.351,5.1 0,10 2.15,14.5 1.6,5.2 4,10.1 5.65,15.2 -0.4,0.301 0.15,0.801 0.25,1.2 0.1,0.8 0.45,1.45 0.5,2.3 -1.2,-0.8 -1.9,-2.05 -2.3,-3.25 z m 3.35,2.75 c -0.8,-0.25 0.149,-0.899 -0.351,-1.3 -1.25,-6.5 -4.25,-12.2 -6,-18.5 -1.05,-4.15 -1.9,-8.1 -2.05,-12.5 4.65,6.3 6.75,13.9 8.65,21.4 1.55,3.4 0.201,7.4 -0.249,10.9 z m 17.2,10.4 c -2.45,2 -5.25,3.25 -8.4,3.7 -1.05,0.3 -2.05,0.8 -3,1.45 -3.85,1.75 -8.9,0.6 -13.2,1.45 l -2.85,-0.15 c 1.9,-0.9 4.1,-0.35 5.85,-1.2 6,-1.55 11.6,-4 17.6,-5.75 1.3,-0.3 2.7,-0.3 4.05,-0.45 l 0,0.95 z m -16.2,2.15 c -0.7,0.149 -1.35,0.5 -2,0.7 -2.05,1.1 -4.55,1.35 -6.75,1.7 -0.8,0.351 -1.6,0.65 -2.4,0.95 2.1,-2.65 5.1,-5.95 8.9,-6.7 1.95,-0.8 3.95,-1.5 6,-2.05 3.9,-0.95 7.35,0.7 11.2,0.5 0.6,0.05 0.9,0.3 1.2,0.8 -5.8,0.351 -11,1.9 -16.2,4.1 z m 18.2,-4.9 c -4.35,-5.65 -13.1,-9 -14,-16.8 l -1,-2 c 4.85,3.25 8.85,7.8 13.2,12.2 l 8.75,8.75 c 0.45,0.101 0.8,0.351 1.1,0.7 -2.95,0.651 -5.3,-0.899 -7.55,-2.25 z m -15,-20.2 c 7.35,-1.05 12.4,5.8 17.2,10.4 1,1.9 2.95,3.5 3.5,5.65 1.05,1.4 1.8,3.05 2.15,4.8 -6.95,-6.45 -12.4,-14 -20,-19.4 -0.999,-0.351 -1.9,-0.851 -2.85,-1.35 z m 12.7,32 c -2.8,0.851 -5.65,0.45 -8.25,1.8 -1.2,0.25 -2.5,0.4 -3.6,0.851 0.45,-1.65 2.45,-1.55 3.8,-1.95 2.8,-1.35 6.2,-1.35 8.9,-3 0.5,-0.05 0.95,-0.25 1.3,-0.6 1.75,-0.851 3.9,-0.7 5.65,-1.55 1.4,0.101 1.9,-2.6 3.25,-1.1 l 0.25,0.25 -0.95,1.95 c -3.3,1.4 -7.45,0.85 -10.3,3.35 z m 12.6,6.95 c -0.45,1.4 -1.7,3.05 -3.35,3.1 -3.25,0.601 -5.45,-1.9 -7.8,-3.8 0.45,-0.55 1.15,-0.399 1.55,-1.1 1.4,1.3 2.55,3.25 4.2,3.95 0.649,0.1 1.05,-0.45 1.2,-0.95 0.65,-2.65 -0.85,-5.2 0.85,-7.55 2.1,1.45 3.7,3.6 3.35,6.35 z m 14.9,-4.2 c 0.649,1.15 2.25,1.25 2.25,2.65 -0.05,0.899 -0.2,1.9 -1.05,2.4 -2.5,1.75 -6.3,1.65 -9,1.45 -0.301,-0.399 -0.7,-0.3 -1.1,-0.399 -0.25,0.35 -0.75,0.85 -1.05,1 0,-0.75 -0.15,-1.4 0.35,-2.05 2.1,-1.85 4.95,-1.1 7.45,-0.6 0.3,0.1 0.5,-0.2 0.7,-0.35 -0.25,-1.65 -1.7,-3.1 -3,-4 -1.2,-1.25 -3.15,-0.7 -4.3,-2 1.45,-0.101 2.55,-0.351 3.95,-0.25 l 4.8,2.15 z m -5.15,-6.5 c -1.25,0.25 -2.5,1.15 -3.75,0.601 0.55,-1.2 2.65,-2.4 1.35,-4.05 -0.7,-0.149 -0.601,0.601 -1.1,0.851 -1.3,1.75 -3.7,1.95 -5.65,2.6 -0.3,-0.1 -0.3,-0.5 -0.101,-0.7 0.05,-0.5 0.851,-0.85 0.601,-1.55 -0.5,-0.55 -0.45,-1.25 -0.95,-1.8 -0.75,-0.2 -1.2,-0.2 -1.95,0 0.75,-1.35 2.4,-1.45 3.6,-2.15 0.85,0.051 1.9,-0.55 2.4,0.351 -0.149,0.85 -0.85,1.5 -1.3,2.25 0.65,0.2 1.3,-0.351 1.8,-0.95 1.3,-0.6 0.75,-3.55 2.75,-1.9 0.35,0.95 -0.05,1.9 -0.6,2.65 0.199,0.35 0.8,0.25 1.1,0.1 0.9,-0.5 1.25,-1.9 2.4,-0.85 0.649,0.5 0.699,0.95 0.8,1.7 -0.451,0.949 -0.951,1.9 -1.4,2.85 z m 10.3,1.2 0,-0.1 c 0.65,0.05 1.05,0.649 1.55,0.949 4.1,2.4 8.75,3.8 13.7,3.85 -0.301,0.35 -0.45,0.8 -0.851,1.1 -2.6,-1.95 -6.3,-1.2 -9.35,-2.05 -3.9,-2.2 -7.5,-4.05 -12.2,-4.45 0.25,-0.399 1,-0.2 1.35,-0.6 1.75,0.8 3.7,1.5 5.75,1.3 z m 0,-6.7 c -1.95,1.25 -4.05,2.45 -6.1,3 l -0.25,0 c 3.75,-5.6 7.45,-11.1 11.9,-16.3 3.15,-2.8 5.65,-6.25 6.15,-10.4 l 0.25,0 c 0.2,2.5 0.75,5.25 -0.5,7.45 -0.85,4.25 -4.4,7.15 -6.25,10.9 -1.65,1.9 -3.1,4.05 -5.15,5.3 z m -6.95,1.3 c 0.25,-2 0.399,-4.05 0.85,-6 0.35,-2.55 0.95,-5 2.6,-7.05 1.9,-3.3 5.95,-4.7 7.35,-8.15 2.1,-2.2 4.95,-3.25 7.45,-4.8 -1.9,5.9 -6.9,10.2 -10.8,15.2 -2.4,3.9 -5.55,6.8 -7.45,10.8 z m 26.8,7.45 c -3.25,-0.399 -6.65,-1.35 -9.6,-2.85 -1.3,-1.25 -2.95,-1.65 -3.85,-3.15 0.8,-0.55 1.7,0 2.55,0 5.5,1.2 10.7,3.2 15.7,5.65 -1.25,0.3 -3.45,0.4 -4.8,0.35 z m 3.85,-1.9 1.2,0.949 c -5.65,-2.9 -11.4,-6.15 -17.9,-7.2 0.5,-1.55 2.3,-0.95 3.5,-1.45 5.7,-0.3 10.2,3.05 13.2,7.7 z m -18.8,-6.95 -2.75,0.35 c 1.4,-2.5 4.45,-1.55 6.35,-3.15 1.8,-0.801 3.55,-1.95 4.9,-3.6 0.8,-0.3 1.85,-0.649 1.95,-1.65 l 1.2,0.6 c -3,4 -8,6 -11,9 z m 13.9,-12 c -0.5,-0.15 -0.6,-0.9 -0.949,-1.35 -1.8,-3.3 0.25,-6.8 0.949,-9.95 1.2,-3.95 2.95,-8.35 6.85,-10.6 0.05,0.801 -0.9,1.7 -1.2,2.65 -2.05,2.95 -2.75,6.25 -4.2,9.6 -0.851,3.05 -1.85,6.3 -1.45,9.6 z m 17.2,-19.2 c 0.25,0.5 0.95,0.85 0.8,1.55 -1.3,-0.25 -2.6,-0.5 -3.95,-0.75 -5.1,-2.15 -8.7,-7.05 -9,-12.6 l -1,-1 c 3.2,5.35 8,10.3 12.5,14.6 z m -12.8,-15.4 c 0.351,-0.6 1.4,-0.1 2.3,0 1.35,0.25 2.45,0.95 3.6,1.7 2.7,3.4 6.9,5.65 7.9,10.1 0.101,1.2 0.75,2.15 0.851,3.35 -3.8,-2.8 -6.35,-6.3 -9.6,-9.6 -1.55,-1.85 -3.15,-3.95 -4.8,-5.75 l -0.25,0.199 z m -2.75,35.6 c -1.1,-4.9 1.3,-9.1 2.05,-13.8 1.2,-2.6 1.85,-5.4 3.6,-7.8 l 0.25,-0.45 c 0.899,0.7 0.2,2.3 0.6,3.35 -0.25,5.2 -1.65,10.6 -3.85,15.1 -1.45,0.899 -0.951,3.05 -2.65,3.6 z m 4.1,-3.7 c 0.949,-2.2 2,-4.35 2.75,-6.6 0.699,-3 1.05,-6.55 1.05,-9.35 0,-0.25 0.05,-0.449 0.25,-0.6 1.6,0.8 3.15,1.75 4.8,2.4 1.15,0.149 2.45,0.6 3.35,0.699 0,0.45 -0.449,0.851 -0.1,1.3 l 0.7,0.85 c -0.601,0.45 -1.2,0.7 -1.9,0.85 -4.1,2.8 -8.35,5.9 -10.7,10.4 l -0.2,0 z m 28.8,-4.7 c -4.65,3.8 -10,4.15 -16,4.35 -3.65,0.8 -7.4,1.7 -10.9,2.6 0.05,-0.75 0.9,-1.05 1.45,-1.4 3.4,-2.85 7.45,-4.9 11.8,-5.2 5.4,-0.3 9.95,-1.15 15.2,-2 0.551,-0.101 1.25,-0.3 1.45,-0.75 -0.1,1.15 -2.05,1.75 -3.1,2.4 z m -4.95,-5.65 c 2.8,0.649 5.75,0.95 7.95,3 -3.6,1.15 -8.1,0.3 -12,1.35 -5.25,0.45 -10.4,0.601 -14.8,3.6 l -4.65,3.95 c 5.05,-8.2 13.8,-13.1 23.5,-11.9 z m -8,-2 c -0.6,0.1 -1.05,-0.15 -1.55,-0.25 l 0,-1.55 c 0.45,-0.101 0.75,-0.65 1.3,-0.601 0.9,0 1.2,0.75 1.2,1.55 0,0.45 -0.6,0.551 -0.95,0.85 z m -118,-42 c -1.55,-1 -1.6,-2.7 -1.35,-4.3 0.649,-0.8 0.2,-1.8 0.5,-2.75 0.649,0.2 1.5,-0.149 1.8,-0.85 0.35,-0.75 -0.05,-1.65 -0.6,-2.05 0.5,-0.2 1.15,-0.101 1.3,-0.7 0.5,-0.7 0.2,-1.65 -0.2,-2.3 l -1.1,-0.5 c 2,-2.05 3.25,-5.3 2.5,-8.75 0.4,0.5 1.2,0.6 1.8,0.35 1,-0.35 1.15,-1.5 0.85,-2.4 -0.5,-0.5 -1.1,-1.25 -2.05,-0.949 2.3,0.25 5.1,0.65 7.35,-0.35 3.9,-0.75 7.3,-2.95 10.3,-5.9 0.25,-0.6 0.9,-1.05 0.75,-1.8 5.1,0.65 10.6,0.25 14.6,-2.9 l 0,-0.351 c -4.55,-5.3 -10.8,-8.35 -18,-7.8 -1.95,0.65 -4.8,0.45 -6.45,2.55 0,-0.7 -0.15,-1.45 -0.5,-2.05 1.4,-0.1 2.85,-0.6 4.2,-1.1 0.2,-0.45 0.65,-1.15 1.2,-1.45 0.2,0.6 0.95,0.3 1.45,0.399 0.8,-0.35 0.95,-1.15 0.85,-1.95 -0.15,-0.45 -0.95,-0.75 -0.5,-1.3 0.45,-1.3 1.7,-2.15 2.65,-3 1.6,3.9 5.8,6.25 9.5,7.9 4.05,1.8 8.9,3.6 13.6,1.8 1.05,-0.2 2.45,-0.1 3.45,-0.1 -2,-4.55 -5.85,-9.15 -11.2,-9.6 -3.15,-2.55 -7.9,-3.15 -11.8,-2.3 0.25,-0.45 -0.2,-2.05 1.1,-2.05 2.65,-0.45 6.2,-0.6 8.85,-0.35 2.2,0.399 4.25,1.1 6.35,1.7 4.65,1.2 9.95,3.3 14.8,1.45 3.15,-0.7 5.75,-2.85 8.5,-4.6 4.65,0.8 8.15,4.35 13,4.7 -3.6,1.25 -7.1,3.5 -10,6.35 0.2,0.95 1.3,1.5 2,2.05 2.8,1.8 6.45,1.5 9.85,1.8 5.9,0.5 11.4,-0.8 16.4,-4.2 2.2,-0.25 3.3,2.1 5.15,3.1 0.9,0.7 1.6,1.15 2.5,1.8 -0.149,0.55 -0.649,0.9 -0.449,1.6 0.25,0.6 0.649,1.05 1.3,1.3 0.55,0.05 1.1,0.05 1.45,-0.5 l 0.1,0.149 c 0.15,-0.199 0.25,-0.75 0.6,-0.35 2.75,1.5 5.35,3.9 6.15,6.95 -4.65,-2.85 -9.9,-4.35 -15.2,-5.55 -5.85,-0.351 -12.6,0.25 -16,5.65 0.25,0.7 1.25,0.15 1.8,0.5 2.15,0.7 3.7,2.15 5.75,3.1 5.5,3 12.2,4.65 18.9,3.35 l 5.15,-2.25 c 0.101,0.75 0.4,1.6 1.05,2.05 2.1,-0.75 1.3,2.2 2.9,2.75 2.05,-0.45 1.4,2.15 3,2.5 0.65,0.5 0.25,1.35 0.351,2.05 0.949,1.95 3.5,3.25 3.35,5.65 -2.15,-3.25 -5.15,-6.05 -9,-6.85 -0.9,-0.65 -2.4,-0.25 -3.35,-0.351 -1.8,0.4 -3.35,1.45 -4.8,2.75 -3.5,-0.8 -6.95,-0.649 -10.3,0.351 0.4,1.3 1.1,2.75 1.65,4.1 1.35,2.85 1.95,6.15 4.95,8.25 2.95,3.45 7.8,3.25 11,6.6 3,2.7 6.9,2.6 10.9,2.65 -0.35,1 0.551,1.45 0.851,2.15 -0.7,0.149 -1.2,0.699 -1.35,1.35 -0.3,0.9 0.45,1.5 1,2.05 0.301,-0.149 0.351,0.2 0.351,0.45 -0.101,0.85 -1.5,0.3 -1.7,1.35 -0.25,0.9 0.35,1.65 1.1,1.9 l 0.351,0 c -0.55,2.3 -0.75,4.7 -1.7,6.85 -0.95,-4.8 -1.05,-10 -4.8,-13.6 -1.05,-0.85 -1.7,-2.25 -3.1,-2.55 -1.75,1.85 -2.75,4.05 -3.1,6.5 -1.2,3.75 -1.45,9.55 0,13.4 1.15,2.1 1.35,4.65 2.75,6.7 0.85,2.15 3.65,1.9 3.6,4.45 1.25,1.75 -0.85,3.45 -0.25,5.4 -1.3,-0.2 -1.3,-1.8 -1.8,-2.75 -0.5,-4.95 -5.15,-7.9 -8.3,-11.4 -2,-2 -5,-2.3 -7.9,-2.4 -0.5,1.2 -0.05,2.2 0.101,3.45 0.149,3.45 0.899,6.8 2.65,9.5 -0.6,0.449 -1.3,1.2 -2.15,1.45 -2.45,2.3 -4.6,5.4 -5.4,8.75 -0.5,1 -0.45,2.2 -0.95,3.25 -0.699,2.25 -1.25,5.15 -0.5,7.4 -0.149,0.9 0.551,1.4 0.601,2.2 0.25,0.55 1,1 1.1,1.55 -0.5,-0.4 -1.35,-0.3 -1.95,-0.15 -0.35,0.351 -0.8,0.851 -0.949,1.35 -0.45,-0.351 -1.45,-0.351 -2.15,0 -0.95,0.5 -0.65,1.65 -0.7,2.4 -1.9,1.65 -4.1,2.6 -6.4,3.35 2.85,-4.1 6.15,-8.05 7.35,-12.9 1.25,-2.65 0.7,-5.9 0,-8.65 -0.05,-0.351 0.35,-0.9 -0.15,-1.2 -3.9,0.6 -7.5,2.8 -10.2,5.55 -1,1.45 -2.25,3.55 -4.05,4.3 -2.05,2.75 -4.85,5.15 -5.4,8.55 -0.75,2.55 -0.95,5.3 -1.7,7.9 -1.35,0.101 -2.55,-0.85 -3.25,-2.05 -0.2,-0.6 -0.9,-1.2 -1.55,-1.3 -0.801,-0.15 -1.9,-0.351 -2.4,0.6 -1.5,0.25 -3,0.601 -4.3,1.3 -0.35,-0.05 -0.9,0.15 -0.95,-0.35 -0.25,-1.8 -0.95,-3.65 -1.7,-5.4 -4.3,-7.1 -11,-13.3 -18.6,-16.7 -1.9,-0.801 -4.4,0.05 -6.25,-0.2 l -0.25,0.2 c 0.45,2.2 2.05,3.9 2.3,6.15 0.4,0.65 0.55,1.45 0.85,2.15 0.85,2.55 2.8,4.45 4.55,6.5 l 7.1,5.4 c -3.2,-0.35 -6.85,-0.85 -10.4,-1 0.1,-0.5 0,-1.6 -0.851,-1.9 -0.5,-0.25 -1.1,-0.05 -1.55,0.25 l -0.1,0.1 -0.15,-0.1 c 0.55,-0.351 0.7,-0.9 0.85,-1.45 0.15,-0.7 -0.75,-1.15 -1.2,-1.55 -0.5,-0.3 -1.1,-0.05 -1.55,0.25 -0.2,-4.3 2,-9.45 0,-13.8 -0.4,-1.75 -0.55,-3.9 -1.45,-5.2 -0.601,-2.25 -1.45,-4.4 -2.5,-6.45 -0.601,-1.45 -0.9,-3 -1.7,-4.35 -1.35,-2.15 -3.15,-4.65 -5.25,-6.1 -0.75,-0.1 -0.6,0.7 -1,1.1 -0.4,1.5 -0.8,3 -1.3,4.4 -0.351,2.5 -1.75,4.5 -1.55,7.2 -0.25,4.45 2.65,8.2 4.3,12.2 0.85,2.7 2.45,5.1 3.85,7.55 -0.85,-1.15 -2,-1 -2.9,-2.05 -3.55,-1.9 -3.25,-6.2 -5.6,-9 0,-0.75 -0.9,-1.3 -1.1,-1.9 0.45,-0.3 0.85,-0.65 1.2,-1.2 0.2,-0.75 -0.3,-1.5 -0.95,-2.05 -0.65,0 -1.9,-0.35 -2.15,0.7 -1,-0.25 -1.6,-1.4 -2.55,-1.65 l -0.1,-0.35 c 0.6,0.05 1.15,0.35 1.65,0 0.5,-0.55 1,-1.2 0.6,-1.95 -0.15,-0.45 -0.6,-0.9 -1.05,-1.05 -0.6,-0.351 -1.2,0.05 -1.7,0.35 -0.15,0.55 -0.6,0.8 -0.95,1.2 -0.45,-0.25 -0.851,-0.8 -1.2,-1.1 3.2,-3 1.85,-7.9 2.5,-11.5 4.15,-2.9 7.35,-6.45 10,-10.6 1.95,-2.65 2.5,-5.85 3.2,-9 -0.45,-0.75 -1.2,-0.1 -1.8,-0.149 -2.4,-0.15 -4.75,0.6 -6.8,1.7 l -0.149,0.1 c -2.15,0.9 -3.8,2.85 -5.75,4.55 -1.45,-2 -2.35,-4.4 -4.3,-6 l -0.6,-0.1 c 0.75,-0.5 -0.55,-1.65 0.6,-1.7 7.3,-0.65 8.25,-9.3 11.6,-14.2 0.7,-2.1 1.6,-4.1 1.6,-6.5 0.4,-3.25 -0.3,-6.45 -0.149,-9.6 -1.9,0.199 -3.75,1.35 -5.5,2.4 -3.85,2.3 -6,6.65 -8.15,10.4 m 16.9,20.4 0.35,0 c 0,2.5 -0.65,5 -2.4,6.95 -0.65,1.8 -2.5,3.2 -3.45,4.8 -0.55,0.699 -1.6,0.75 -1.8,1.7 -1,0.7 -2.15,1.7 -3,2.65 -0.15,-1.85 -0.85,-3.55 0.45,-5.05 0.351,-1.25 1.85,-1.6 2.65,-2.75 2.25,-2.5 5.4,-4.3 6.7,-7.45 0.35,-0.099 0.6,-0.45 0.5,-0.849 z m -7.3,6.5 c -1.35,1.4 -3.25,2.45 -4.1,4.3 -0.8,-3.7 1.45,-6.65 4.2,-8.4 2,-1.3 4.25,-1.9 6.6,-2.3 l 0.25,0 c -2.45,1.9 -4.1,4.8 -6.95,6.4 z m 105,-3 c 1,5.4 2.15,10.8 1.7,16.6 -0.85,-0.15 -1.15,-0.9 -1.8,-1.4 -0.9,-1.7 -1.6,-3.65 -2.3,-5.55 -0.45,-2.05 -0.551,-3.85 -0.801,-6 0.15,-4.15 0.25,-8.9 2.75,-12.4 0.851,2.75 -0.199,5.8 0.451,8.65 z m 3.4,16.8 c -0.351,-5.15 -0.7,-9.85 -1.6,-14.8 -0.199,-0.75 -0.55,-1.5 -0.6,-2.3 -0.45,-2.6 0,-5.5 -0.8,-7.9 2.9,2.3 3.75,5.7 4.3,9.2 0.35,0.449 0.35,1.05 0.5,1.6 1.05,4.1 3.2,8.9 0.45,13 -0.649,0.649 -1.45,1 -2.25,1.2 z m 24.7,-3.85 c -0.022,0.008 -0.043,0.019 -0.063,0.026 -2.82,6.72 -8.87,12.1 -16.1,13.4 -2.3,0.35 -4.7,1.25 -6.95,1.05 -1.55,-0.8 -0.6,-2.25 -0.85,-3.6 1.3,-1.85 2,-3.85 3.7,-5.15 2,-1.95 4.35,-3.7 7.1,-4.65 3.1,-1.3 7.05,-2.75 10.1,-1 0.8,-0.101 1.55,-0.2 2.4,-0.351 -1.9,0.8 -4.05,1.15 -5.65,2.65 -5.55,3.35 -11.8,5.35 -16.4,10.4 -0.1,0.3 0.101,0.55 0.351,0.6 2.2,-0.85 4,-3.3 6.25,-4.35 2.2,-1.2 4.4,-2.6 6.85,-3.2 2.93,-2.28 5.91,-4.62 9.29,-5.87 l 0.06,-0.138 c -0.034,-0.111 -0.169,-0.161 -0.246,-0.238 l 0.348,0 c -0.032,0.081 -0.07,0.158 -0.104,0.238 0.01,0.032 0.015,0.068 0.004,0.112 z" /><path
       inkscape:connector-curvature="0"
       id="path118"
       d="m 250,394 c -0.127,0.075 -0.251,0.16 -0.364,0.272 0.164,-0.033 0.272,-0.141 0.364,-0.272 z" /><path
       inkscape:connector-curvature="0"
       id="path120"
       d="m 390,416 c 0.077,0.077 0.212,0.127 0.246,0.238 0.033,-0.08 0.071,-0.157 0.104,-0.238 l -0.35,0 z" /><path
       inkscape:connector-curvature="0"
       id="path122"
       d="m 390,416 c 0.011,-0.044 0.006,-0.08 -0.004,-0.111 l -0.06,0.138 c 0.021,-0.008 0.042,-0.019 0.064,-0.027 z" /></g><g
     id="g4292"><path
       d="m 99.9,0.3 0,0.31 -1.99,0.221 c 0.132,4.1 -0.265,8.25 -0.131,12.1 0.176,0.837 0.75,1.59 1.5,2.12 1.41,0.662 3.57,0.574 4.85,-0.309 1.01,-0.751 1.41,-1.68 1.5,-2.78 l 0.221,-11 C 105.1,0.697 104.13,0.831 103.42,0.61 l 0,-0.31 c 1.41,-0.0882 3.18,0 4.85,0.132 l 0,0.309 -1.59,0.0891 c -0.309,3.84 -0.309,8.07 -0.441,12.1 -0.309,1.9 -2.38,2.74 -4.02,3.04 -2.65,0 -5.52,0 -6.97,-2.43 l -0.441,-1.37 c 0.265,-3.71 0,-7.63 0.221,-11.3 -0.397,-0.397 -1.06,-0.132 -1.59,-0.221 l 0,-0.53 c 2.16,0.09 4.41,0.09 6.44,0.222 z"
       id="path6"
       style="fill:#d44500;fill-opacity:1"
       inkscape:connector-curvature="0" /><path
       d="m 118.9,1.6 c 1.94,4.81 3.75,9.66 5.83,14.4 1.46,-3.75 2.21,-7.77 3.53,-11.6 -0.751,-0.441 -1.72,-0.397 -2.47,-0.838 0.0441,-0.485 0.352,-0.574 0.75,-0.441 l 4.37,1.28 0,0.662 -1.72,-0.53 c -1.76,4.77 -2.78,9.84 -4.32,14.7 -0.573,0.0441 -1.32,-0.0441 -1.9,-0.31 -2.74,-5.65 -5.12,-11.5 -7.85,-17.2 l -0.221,0.221 c -0.529,4.76 -1.41,9.4 -2.12,14.1 0.751,0.397 1.59,0.574 2.43,0.662 l 0,0.53 c -1.72,-0.0891 -3.4,-0.794 -5.16,-0.972 l 0,-0.441 c 0.618,-0.176 1.63,0.397 1.99,-0.0882 0.662,-4.81 1.41,-9.57 2.25,-14.3 -0.485,-0.662 -2.12,0.0891 -1.81,-1.06 2.16,0.354 4.32,0.708 6.44,1.15 z"
       id="path8"
       inkscape:connector-curvature="0"
       style="fill:#6f777d" /><path
       d="m 80.4,2.2 c 0.353,1.59 0.971,3.13 1.19,4.77 l -0.529,0.131 c -1.19,-1.28 -2.12,-3.97 -4.24,-3.49 l -5.21,1.46 c 0.221,2.21 1.24,4.1 1.59,6.27 1.01,0 2.12,-0.396 3.09,-0.837 0.706,-0.882 0.794,-2.12 0.706,-3.18 0.176,-0.0882 0.352,-0.131 0.529,-0.131 0.662,2.07 1.1,4.24 1.81,6.27 -0.131,0.353 -0.485,0.132 -0.75,0.221 -0.397,-0.838 -0.794,-1.72 -1.68,-2.25 -1.23,-0.397 -2.29,0.309 -3.4,0.529 0.309,2.25 1.1,4.54 1.72,6.8 1.85,-0.132 3.75,-0.794 5.6,-1.37 1.81,-1.32 1.28,-3.79 1.68,-5.74 0.176,-0.132 0.397,-0.0441 0.529,-0.221 0.309,0.485 0.309,1.06 0.441,1.59 0.529,1.24 0.618,2.69 1.15,3.93 -4.46,1.41 -9.09,2.29 -13.5,3.71 -0.176,-0.132 -0.221,-0.31 -0.221,-0.53 0.441,-0.397 2.16,0.0441 1.37,-1.15 -1.24,-4.37 -2.34,-8.82 -3.71,-13.1 -0.441,0.176 -1.32,0.574 -1.59,0.0891 0.882,-0.485 2.03,-0.706 3.09,-0.927 3.4,-1.06 6.88,-1.94 10.4,-2.78 z"
       id="path10"
       inkscape:connector-curvature="0"
       style="fill:#6f777d" /><path
       d="m 139.9,7.7 -0.132,0.529 c -0.574,0 -1.32,-0.882 -1.76,-0.0882 -1.54,4.59 -3.71,8.91 -5.43,13.5 0.441,0.441 1.41,0.309 1.5,0.927 l -0.221,0.221 -5.6,-2.21 c -0.0441,-0.221 0,-0.397 0.221,-0.529 0.441,0.176 0.838,0.485 1.37,0.529 1.99,-4.59 3.84,-9.22 5.6,-13.9 -0.352,-0.485 -1.63,-0.221 -1.28,-1.06 1.9,0.707 3.75,1.54 5.74,2.12 z"
       id="path12"
       inkscape:connector-curvature="0"
       style="fill:#6f777d" /><path
       d="m 63.6,12.4 -0.441,0.221 c -1.63,-1.19 -2.87,-3.71 -5.21,-2.87 -1.37,0.53 -3,1.32 -3.57,2.87 -0.176,0.838 -0.265,1.9 0.397,2.52 3.22,1.46 6.8,-0.53 10.2,0.131 1.01,0.221 1.76,1.1 2.21,1.99 0.706,1.5 0.0882,3.18 -0.618,4.46 -2.16,2.82 -5.34,3.66 -8.69,3.8 -0.574,-1.5 -1.5,-2.91 -2.03,-4.41 0.221,-0.045 0.441,-0.397 0.662,-0.132 1.19,1.24 2.16,2.69 3.71,3.31 1.94,0.441 3.66,-0.485 4.85,-1.94 0.397,-0.838 1.06,-1.72 0.662,-2.74 -0.265,-1.15 -1.54,-1.72 -2.56,-1.9 -3.62,-0.309 -8.82,2.38 -10.3,-2.34 -0.397,-2.07 0.927,-3.84 2.56,-4.99 1.85,-1.19 3.97,-1.81 6.22,-2.12 0.882,1.32 1.32,2.73 1.94,4.15 z"
       id="path14"
       inkscape:connector-curvature="0"
       style="fill:#6f777d" /><path
       d="m 147.9,12.2 c 0,0.265 -0.0883,0.485 -0.309,0.662 -0.618,-0.132 -1.01,-0.838 -1.68,-0.838 -0.793,4.1 -1.06,8.38 -1.81,12.5 l 0.31,0 c 3.31,-2.6 6.75,-4.81 10.1,-7.41 -0.176,-0.706 -1.85,-0.794 -1.06,-1.59 1.32,0.529 2.47,1.46 3.71,2.21 0.0891,0.265 -0.221,0.485 -0.441,0.529 -0.441,-0.0882 -0.706,-0.662 -1.23,-0.529 -4.24,3.4 -8.74,6.27 -13.1,9.53 -2.87,-0.132 -0.837,-2.91 -1.15,-4.46 l 1.81,-12.5 c -0.309,-0.353 -1.32,-0.485 -0.971,-1.06 0.309,-0.265 0.574,0.0891 0.838,0.132 l 4.99,2.82 z"
       id="path16"
       inkscape:connector-curvature="0"
       style="fill:#6f777d" /><path
       d="m 48.4,14.7 -1.28,0.927 6.66,9.66 c 0.618,1.41 0.353,3.27 -0.618,4.41 -1.94,1.99 -4.24,3.44 -6.97,3.09 -0.927,-0.353 -1.85,-0.882 -2.47,-1.81 -2.03,-2.87 -3.88,-5.83 -6.13,-8.69 -0.485,0.176 -0.838,0.574 -1.28,0.882 l -0.309,-0.352 c 1.63,-1.24 3.49,-2.56 5.29,-3.71 l 0.221,0.352 -1.5,1.15 7.02,9.75 c 0.618,0.573 1.28,1.01 2.12,1.06 1.68,-0.0891 3.18,-1.28 4.02,-2.78 0.706,-1.37 0.132,-3 -0.75,-4.1 l -5.91,-8.38 c -0.706,0.31 -1.37,0.838 -2.03,1.28 L 44.175,17.13 c 1.15,-0.882 2.47,-1.76 3.71,-2.78 0.264,-0.045 0.484,0.132 0.529,0.353 z"
       id="path18"
       inkscape:connector-curvature="0"
       style="fill:#6f777d" /><path
       d="m 169.9,28.6 c -1.06,1.28 -2.12,2.74 -3.4,3.71 l -0.309,-0.309 c 0.441,-1.68 1.81,-3.49 0.838,-5.21 l -4.32,-3.57 c -1.46,1.5 -3.13,3.13 -4.37,4.85 1.01,0.882 1.99,2.56 3.62,1.81 0.838,0.045 1.76,-1.9 2.21,-0.529 -1.63,1.54 -2.87,3.53 -4.54,4.77 -0.309,-0.794 0.441,-1.72 0.618,-2.56 0.221,-1.46 -1.46,-2.07 -2.29,-2.96 -1.59,1.59 -3.18,3.53 -4.77,5.29 2.03,1.28 3.62,4.68 6.44,3.71 1.19,-0.441 2.25,-1.19 3.4,-1.81 0.265,-0.0882 0.396,0.132 0.617,0.221 l 0,0.221 -3.71,4.1 c -3.57,-2.87 -7.1,-5.87 -10.6,-9 l 0.309,-0.309 1.19,0.971 c 3.22,-3.49 6.44,-7.15 9.53,-10.8 l -1.19,-1.06 0.221,-0.309 c 3.48,2.74 7.01,5.65 10.5,8.78 z"
       id="path20"
       inkscape:connector-curvature="0"
       style="fill:#6f777d" /><path
       d="m 32.8,26.7 c 1.19,1.06 1.85,2.16 3.09,3.09 l -0.441,0.397 c -1.99,-0.441 -4.5,-2.82 -6.35,-0.397 -1.19,1.06 -1.72,2.6 -1.15,4.1 1.85,3.44 4.99,7.32 9,7.94 1.54,-0.132 2.96,-1.1 3.71,-2.52 0.662,-2.21 -0.972,-4.02 -1.59,-5.96 0.132,-0.0891 0.221,-0.266 0.397,-0.176 l 3.53,3.49 c -1.23,2.87 -3.88,5.91 -7.1,6.44 -3,0.573 -5.56,-0.662 -7.55,-2.87 -1.46,-1.9 -2.52,-4.1 -1.9,-6.75 0.662,-3.18 3.53,-5.6 6.35,-6.8 z"
       id="path22"
       inkscape:connector-curvature="0"
       style="fill:#6f777d" /><path
       d="m 180.9,43.5 c -0.0441,1.41 -0.927,2.6 -2.21,3.09 -2.21,0.574 -4.02,-1.15 -5.65,-2.65 l -0.176,0.221 c -0.397,3.13 -1.32,6.09 -1.72,9.22 l 0.75,0.927 c -0.131,0.176 -0.309,0.265 -0.529,0.221 -5.12,-3.49 -0.0883,-8.96 -0.618,-13.5 l -5.65,4.46 c 0.265,0.574 0.793,1.06 1.19,1.59 l -0.309,0.309 c -1.54,-1.54 -2.65,-3.44 -4.15,-5.07 l 0.309,-0.309 c 0.662,0.131 0.662,1.68 1.5,0.927 3.57,-2.96 7.28,-5.6 10.9,-8.56 -0.0441,-0.574 -1.37,-1.1 -0.529,-1.59 2.51,3.49 6.18,6.49 6.88,10.7 z m -4.54,-6.66 -5.07,4.02 c 1.15,1.5 2.6,3.62 4.76,3.4 1.28,0 2.25,-1.1 2.74,-2.21 0.574,-2.16 -1.24,-3.75 -2.43,-5.21 z"
       id="path24"
       inkscape:connector-curvature="0"
       style="fill:#6f777d" /><path
       d="m 190.9,57.4 0.221,1.06 c -1.37,0.662 -2.65,1.54 -4.15,1.99 -0.045,-0.132 -0.132,-0.309 -0.0891,-0.529 1.37,-1.54 3.35,-2.96 2.56,-5.29 -0.618,-1.5 -1.81,-3.31 -3.62,-3.49 -0.882,0.0441 -1.76,0.265 -2.21,1.06 -0.617,3.71 1.63,7.55 0.0891,11.1 -1.15,1.19 -2.69,1.68 -4.32,1.28 -3.79,-1.32 -5.69,-5.25 -5.82,-9 1.37,-0.927 2.91,-1.54 4.32,-2.43 0.045,0.0882 0.441,0.265 0.31,0.529 -1.54,1.76 -3.75,3.4 -3.18,5.91 0.662,1.37 1.72,3.09 3.31,3.49 0.838,0.353 1.59,-0.132 2.3,-0.397 2.21,-2.25 0.397,-5.52 0.352,-8.16 -0.131,-1.46 -0.0441,-3.13 1.37,-4.02 1.15,-0.75 2.6,-0.838 3.93,-0.309 2.78,1.41 3.97,4.41 4.63,7.19 z"
       id="path26"
       inkscape:connector-curvature="0"
       style="fill:#6f777d" /><path
       d="m 33.6,46.1 c 0.618,-0.309 0.529,-1.54 1.41,-1.06 l 0,0.353 -3.62,5.16 c -0.221,0.045 -0.397,0 -0.529,-0.221 0.176,-0.529 0.75,-0.882 0.838,-1.46 -1.72,-0.441 -3.93,-0.397 -5.82,-0.838 -1.41,1.99 -2.69,4.06 -3.71,6.22 0.971,1.41 2.03,2.78 2.87,4.24 0.75,-0.265 0.662,-2.16 1.68,-1.59 l 0,0.31 c -1.1,1.94 -2.07,3.93 -3.18,5.82 -3.22,0.927 -6.4,1.99 -9.53,3.18 2.12,1.06 4.32,1.9 6.49,2.87 0.397,-0.573 0.397,-1.5 1.06,-1.81 l 0.221,0.221 -2.47,5.83 -0.397,0 c 0,-0.3 0.4,-0.9 0.4,-1.5 -4.2,-1.9 -8.6,-3.7 -12.9,-5.5 l -0.751,1.41 C 5.441,67.6459 5,67.47 5.353,67.205 c 2.29,-3.66 2.25,-8.87 6.66,-11.1 0.971,-0.0441 1.81,-0.132 2.65,0.529 1.94,1.5 1.19,4.41 0.618,6.35 3.04,-0.706 6.13,-1.81 9.13,-2.87 l 0.397,-0.75 -9,-13.7 c 0.574,-2.69 3.62,-0.618 5.43,-0.927 l 12.4,1.45 z m -8.65,1.94 -7.32,-0.971 4.02,6.27 3.31,-5.29 z m -13.6,10.7 c -2.47,0.31 -2.74,3.09 -3.71,4.77 l 5.91,2.56 c 0.793,-1.72 1.68,-3.8 0.882,-5.74 -0.662,-1.24 -2.12,-1.59 -3.09,-1.59 z"
       id="path28"
       inkscape:connector-curvature="0"
       style="fill:#6f777d" /><path
       d="m 192.9,63 c 0.529,1.94 1.46,3.75 1.99,5.74 -0.927,0.352 -0.441,-1.68 -1.46,-1.28 -4.37,1.59 -8.74,3.09 -13.1,4.85 -0.0441,0.573 0.751,1.19 0.221,1.59 l -0.221,0 c -0.529,-1.94 -1.46,-3.75 -1.99,-5.69 0.0891,-0.221 0.265,-0.0882 0.397,-0.131 l 0.529,1.37 c 4.54,-1.63 9.18,-2.96 13.6,-4.94 -0.132,-0.485 -1.06,-1.59 0,-1.5 z"
       id="path30"
       inkscape:connector-curvature="0"
       style="fill:#6f777d" /><path
       d="m 4.9,69.6 c 0.176,0.573 -0.353,1.1 -0.309,1.72 l 6.04,6.35 c 2.16,0.53 4.37,1.06 6.53,1.59 0.485,-0.618 0.132,-2.12 1.06,-1.94 l -1.68,7.02 -0.441,-0.132 c 0,-0.75 0.618,-1.54 0.221,-2.21 l -6.05,-1.5 c -2.82,1.06 -5.78,1.81 -8.65,2.65 -0.309,0.485 0.132,1.81 -0.882,1.41 l 1.72,-6.8 0.397,0.0882 -0.397,2.03 c 2.47,-0.352 4.94,-1.37 7.41,-2.03 -1.68,-1.85 -3.57,-4.02 -5.52,-5.69 -0.441,0.486 0.0882,1.9 -0.838,1.68 0.0441,-1.41 0.75,-2.78 0.927,-4.24 l 0.441,0 z"
       id="path40"
       inkscape:connector-curvature="0"
       style="fill:#6f777d" /><path
       d="m 196.9,73.8 c 0.794,3.84 1.63,7.77 2.34,11.5 l -4.68,0.971 c -0.045,-0.0882 -0.266,-0.309 -0.176,-0.529 1.28,-1.15 4.5,-1.37 3.71,-3.93 -0.266,-0.529 -0.266,-1.81 -1.28,-1.15 -4.37,0.927 -8.69,1.9 -13,2.87 -0.397,0.706 0.793,1.81 -0.221,2.12 l -1.5,-6.79 c 0.265,-0.045 0.574,-0.176 0.662,0.221 l 0.176,1.46 1.06,0 13.1,-2.82 c -0.265,-0.927 0.176,-2.6 -1.19,-3 -1.23,-0.265 -2.6,-0.265 -3.93,-0.397 -0.176,-0.132 -0.045,-0.353 -0.0891,-0.529 1.59,-0.353 3.22,-0.574 4.77,-1.06 l 0.31,1.06 z"
       id="path42"
       inkscape:connector-curvature="0"
       style="fill:#6f777d" /><path
       d="m 14.9,89.4 c 1.54,3.09 1.24,6.97 -0.529,9.84 l -4.68,-0.221 0,-0.529 c 2.21,-0.706 5.52,-1.1 5.74,-4.1 0.132,-1.94 -0.397,-3.79 -2.03,-4.76 -0.75,-0.0891 -1.85,-0.353 -2.43,0.309 -3.04,2.78 -2.16,10.4 -8.16,8.78 -2.21,-1.01 -2.96,-3.4 -2.87,-5.74 -0.0441,-1.9 0.53,-3.53 1.06,-5.16 1.32,-0.0883 3.04,0.132 4.54,0.221 l 0,0.53 c -1.85,0.573 -4.24,0.927 -4.94,3.04 -0.485,1.68 -0.176,3.48 0.927,4.76 0.662,0.706 1.63,0.838 2.43,0.751 2.65,-2.25 2.6,-6 4.59,-8.69 0.838,-1.28 2.3,-1.41 3.71,-1.15 1.1,0.177 2.03,1.19 2.65,2.12 z"
       id="path58"
       style="fill:#d44500;fill-opacity:1"
       inkscape:connector-curvature="0" /><path
       d="m 199.9,88.4 c 0.0891,2.21 0.31,4.85 0.221,6.97 l -0.309,0 c -0.265,-0.617 0.0882,-1.54 -0.353,-2.12 l -6.35,4.02 c 2.12,1.41 4.5,2.6 6.71,4.06 l 0.0883,-1.94 0.441,0 0.176,4.37 -0.529,0 c 0.882,-2.16 -1.72,-2.25 -2.65,-3.18 l -4.94,-2.87 -6.88,0.221 -0.132,2.21 -0.529,-0.0883 -0.22,-7.1 0.441,0 0.221,2.12 6.75,-0.309 c 2.47,-1.72 4.99,-3.09 7.41,-4.77 0.133,-0.529 -0.308,-1.59 0.442,-1.59 z"
       id="path60"
       inkscape:connector-curvature="0"
       style="fill:#6f777d" /><path
       d="m 187.9,110.4 c 0.353,0.837 0.265,2.03 -0.309,2.74 -0.662,0.838 -1.81,0.838 -2.78,0.662 -0.618,-0.265 -0.927,-0.75 -1.37,-1.28 -0.176,-0.838 -0.176,-1.9 0.441,-2.56 0.441,-0.53 1.06,-0.662 1.68,-0.838 0.927,0.0865 1.85,0.351 2.34,1.28 z"
       id="path76"
       inkscape:connector-curvature="0"
       style="fill:#6f777d" /><path
       d="m 16.8,111.4 c 0.221,0.75 0.0882,1.68 -0.31,2.29 -0.662,0.882 -1.72,1.15 -2.78,0.882 -0.882,-0.265 -1.5,-1.23 -1.59,-2.12 0,-0.927 0.441,-1.72 1.19,-2.25 1.19,-0.662 2.91,-0.266 3.49,1.19 z"
       id="path78"
       inkscape:connector-curvature="0"
       style="fill:#6f777d" /><path
       d="m 198.9,111.4 c 0.751,0.75 1.06,1.76 0.751,2.78 -0.221,0.53 -0.794,1.15 -1.37,1.37 -0.927,0.221 -1.94,0.0882 -2.65,-0.53 -0.617,-0.706 -0.75,-1.72 -0.529,-2.65 0.309,-0.706 1.1,-1.28 1.81,-1.5 0.794,-0.131 1.41,0.221 1.99,0.53 z"
       id="path80"
       inkscape:connector-curvature="0"
       style="fill:#6f777d" /><path
       d="m 4.3,112.4 c 0.618,0.706 0.75,1.72 0.529,2.65 -0.397,0.882 -1.32,1.46 -2.25,1.5 -0.927,-0.0441 -1.9,-0.574 -2.34,-1.5 -0.176,-0.793 -0.176,-1.81 0.441,-2.43 0.882,-1.15 2.6,-0.97 3.62,-0.221 z"
       id="path82"
       inkscape:connector-curvature="0"
       style="fill:#6f777d" /><path
       d="m 21.9,134.4 -4.54,1.59 c -0.0882,-0.0882 -0.265,-0.309 -0.221,-0.529 1.15,-1.01 3,-2.07 3.27,-3.71 -0.574,-1.81 -1.06,-3.66 -1.9,-5.38 l -5.91,2.12 c 0.221,1.1 0.221,2.74 1.68,3.27 0.838,0.397 1.85,-0.352 2.56,0.221 l 0,0.31 -6.13,2.12 c -0.618,-0.75 0.706,-0.793 1.06,-1.37 0.927,-0.574 1.1,-1.63 0.838,-2.56 -0.265,-0.529 -0.353,-1.19 -0.75,-1.68 l -6.57,2.21 c -0.176,0.838 0.794,1.59 0.441,2.43 l -0.309,0 c -0.706,-2.03 -1.41,-4.1 -2.03,-6.22 0.0882,-0.176 0.309,-0.0891 0.441,-0.132 0.176,0.485 0.221,0.971 0.529,1.41 4.5,-1.46 8.87,-3.09 13.3,-4.68 0.176,-0.485 -0.882,-1.5 0.0882,-1.59 l 4.15,12.2 z"
       id="path98"
       inkscape:connector-curvature="0"
       style="fill:#6f777d" /><path
       d="m 193.9,127.4 c 1.41,2.69 1.1,6.35 -0.971,8.69 -2.12,2.43 -5.47,3.09 -8.47,2.21 -2.65,-0.706 -5.07,-3.22 -5.6,-5.91 -0.706,-3.35 0.838,-6.31 3.49,-8.07 3.84,-2.34 9.27,-0.883 11.6,3.09 z m -2.21,0.927 c -3.18,-1.32 -6.66,-3.13 -10.3,-2.12 -1.41,0.927 -1.81,2.47 -2.03,3.93 -0.0891,1.72 1.59,2.82 2.87,3.62 3.13,1.19 6.57,3.04 10.1,1.81 1.41,-1.23 2.3,-3.09 1.59,-4.99 -0.353,-1.02 -1.41,-1.59 -2.21,-2.25 z"
       id="path100"
       inkscape:connector-curvature="0"
       style="fill:#6f777d" /><path
       d="m 186.9,148.4 c 0.485,-0.0883 0.353,-1.23 1.06,-0.75 -0.838,1.59 -1.63,3.18 -2.65,4.68 l -0.441,-0.0883 c 0.132,-0.441 0.485,-0.794 0.662,-1.19 -4.5,-2.47 -6.4,-7.37 -8.16,-11.6 -1.32,2.69 -3.27,5.12 -4.46,7.85 l 1.81,1.06 c 0.0882,0.221 -0.132,0.353 -0.221,0.529 l -3.49,-2.03 0,-0.529 5.6,-9.53 c 2.73,4.28 5.74,8.78 10.3,11.6 z"
       id="path102"
       inkscape:connector-curvature="0"
       style="fill:#6f777d" /><path
       d="m 25.4,140.4 c 1.63,2.21 1.5,5.91 0.132,8.16 -2.07,2.87 -5.43,4.63 -9,3.8 -2.34,-0.574 -4.76,-2.56 -5.43,-4.94 -1.06,-3.4 0.309,-6.71 3.09,-8.82 2.21,-1.63 5.91,-2.25 8.34,-0.706 1.1,0.485 2.21,1.46 2.87,2.52 z m -4.24,-1.28 c -3.18,0.927 -6.09,2.6 -8.69,4.99 -0.838,0.927 -1.06,2.43 -0.618,3.62 0.618,1.15 1.46,2.82 3.09,2.74 4.02,-0.221 7.28,-2.43 10.1,-5.29 0.794,-1.1 0.838,-2.87 0.0882,-4.02 -0.838,-1.41 -2.25,-2.34 -4.02,-2.03 z"
       id="path104"
       inkscape:connector-curvature="0"
       style="fill:#6f777d" /><path
       d="m 33.5,153.4 c -0.132,0.0882 -0.221,0.265 -0.441,0.176 -0.397,-0.396 -0.618,-1.1 -1.24,-1.23 l -9,7.94 c -0.574,0.75 -0.75,1.81 -0.662,2.74 0.485,1.5 2.07,2.96 3.62,3.27 0.927,0.132 1.99,-0.0441 2.74,-0.618 2.78,-2.69 6.04,-4.9 8.47,-7.72 -0.485,-0.573 -1.54,-1.23 -1.15,-1.9 l 3.18,3.48 -0.309,0.31 -1.19,-1.06 -9,7.72 c -1.28,0.706 -3.18,0.529 -4.32,-0.309 -2.16,-1.68 -4.1,-3.97 -3.71,-6.8 0.662,-1.94 2.65,-3.31 4.1,-4.63 l 5.43,-4.68 -0.972,-1.28 0.221,-0.176 c 1.55,1.41 2.96,3.09 4.24,4.76 z"
       id="path106"
       inkscape:connector-curvature="0"
       style="fill:#6f777d" /><path
       d="m 173.9,151.4 c 0.882,1.24 0.176,2.96 0,4.15 1.23,-1.1 2.74,-1.9 4.46,-1.41 1.28,0.352 2.21,1.68 2.56,2.87 0.266,3.31 -1.54,6.18 -4.37,7.85 -0.972,0.618 -2.3,0.618 -3.49,0.397 -1.15,-0.309 -2.21,-1.37 -2.52,-2.52 -0.396,-1.28 0.176,-2.43 0.53,-3.49 -0.972,0.221 -1.85,1.24 -3.09,1.15 -1.37,0.0891 -2.52,-0.882 -3.09,-2.03 -0.751,-2.65 0.662,-4.9 2.47,-6.75 1.32,-1.19 2.82,-2.16 4.77,-1.59 0.662,0.222 1.32,0.883 1.76,1.37 z m -5.69,0.53 c -1.19,0.485 -1.85,1.72 -2.12,2.87 0.0441,1.15 1.01,2.03 1.9,2.74 1.01,0.662 2.21,1.06 3.4,0.441 0.882,-0.75 1.68,-1.72 1.46,-2.96 -0.618,-1.85 -2.69,-3.4 -4.63,-3.09 z m 5.69,4.46 c -1.1,0.882 -2.16,1.94 -1.9,3.49 0.132,1.28 1.32,1.94 2.25,2.87 0.972,0.618 2.38,1.06 3.49,0.397 1.15,-0.972 2.21,-2.38 1.68,-4.02 -1.06,-1.81 -3.31,-3.66 -5.52,-2.73 z"
       id="path108"
       inkscape:connector-curvature="0"
       style="fill:#6f777d" /><path
       d="m 160.9,158.4 c 3.4,3.35 7.01,7.55 10.5,10.8 0.397,-0.265 0.706,-1.06 1.19,-0.75 0.132,0.0441 0.0891,0.221 0.0891,0.309 l -4.46,4.02 -0.31,-0.309 1.28,-1.37 c -2.78,-3.09 -5.87,-6.31 -8.78,-9.31 l -1.06,3.4 c -0.176,0.131 -0.441,-0.132 -0.662,-0.221 0.838,-1.9 1.46,-3.97 1.5,-6.05 0.221,-0.175 0.397,-0.572 0.75,-0.529 z"
       id="path110"
       inkscape:connector-curvature="0"
       style="fill:#6f777d" /><path
       d="m 45.1,165.4 c -0.221,4.72 -0.0882,10.1 -0.132,14.7 2.25,-3.09 4.37,-6.27 6.35,-9.53 -0.574,-0.529 -1.37,-1.06 -1.81,-1.59 l 0.353,-0.309 c 1.37,0.927 2.78,2.03 4.02,3.09 -0.176,0.0883 -0.265,0.396 -0.53,0.309 -0.441,-0.485 -0.971,-0.75 -1.5,-1.06 l -8.25,12.3 c -0.485,-0.0441 -1.06,-0.53 -1.59,-0.838 0.0882,-6.53 0.309,-12.5 0.221,-18.8 -3.35,3.48 -6.62,7.06 -9.66,10.6 0.618,0.441 1.19,1.01 1.81,1.37 0.0441,0.221 0,0.397 -0.221,0.529 -1.32,-0.971 -2.91,-2.25 -4.02,-3.49 l 0.309,-0.309 c 0.529,0.353 0.971,0.927 1.59,1.06 l 9.66,-10.3 c -0.0441,-0.662 -2.03,-1.23 -0.75,-1.81 l 4.15,4.15 z"
       id="path112"
       inkscape:connector-curvature="0"
       style="fill:#6f777d" /><path
       d="m 155.9,173.4 c 0.706,0.485 0.75,1.24 0.927,1.9 -0.0441,0.927 -0.618,1.85 -1.46,2.25 -0.706,0.441 -1.54,0.0882 -2.25,-0.132 -0.618,-0.352 -1.06,-0.971 -1.15,-1.68 -0.132,-0.838 0.131,-1.54 0.618,-2.12 0.838,-0.707 2.38,-0.927 3.31,-0.222 z"
       id="path124"
       inkscape:connector-curvature="0"
       style="fill:#6f777d" /><path
       d="m 63.4,177.4 c 2.16,1.94 2.91,5.03 2.21,7.59 -0.618,2.43 -3.04,4.77 -5.52,5.21 -4.94,0.837 -8.47,-2.43 -12.5,-4.15 l 0.132,-0.31 c 0.574,0 0.927,0.441 1.46,0.53 2.25,-4.24 4.5,-8.43 6.57,-12.7 -0.309,-0.662 -1.54,-0.309 -1.28,-1.15 3.09,1.37 6.22,2.65 8.91,4.99 z m -4.99,-2.47 -6.44,12.7 c 1.99,1.06 4.46,2.52 6.75,1.19 2.87,-2.43 4.94,-5.87 4.46,-9.84 -0.75,-2.07 -2.96,-3.27 -4.77,-4.06 z"
       id="path126"
       inkscape:connector-curvature="0"
       style="fill:#6f777d" /><path
       d="m 146.9,179.4 c 1.28,1.9 1.63,4.99 0.53,7.1 -2.34,4.37 -7.28,5.25 -11.1,7.41 -0.397,-0.838 0.838,-0.574 1.15,-1.06 -1.85,-4.41 -3.84,-8.74 -6,-13 l -1.5,0.53 -0.0882,-0.353 c 4.72,-2.25 12.8,-7.24 17,-0.619 z m -5.29,-1.5 c -2.29,-1.63 -5.29,-0.573 -7.32,0.751 l 5.96,12.8 2.65,-1.28 c 1.9,-1.23 2.96,-3.35 2.43,-5.6 -0.794,-2.43 -1.63,-4.81 -3.71,-6.71 z"
       id="path128"
       inkscape:connector-curvature="0"
       style="fill:#6f777d" /><path
       d="m 82,183.4 c -0.0882,1.54 -1.01,3.04 -1.28,4.68 l -0.529,0 c -0.485,-1.72 0.309,-4.1 -1.46,-5.21 -1.81,-0.529 -3.62,-1.06 -5.43,-1.59 -0.574,2.12 -1.32,4.19 -1.99,6.27 0.75,0.397 1.59,0.662 2.43,0.838 1.59,0.397 2.16,-1.63 3.09,-2.25 l 0.309,0 c -0.441,2.03 -1.19,4.19 -1.81,6.27 l -0.618,0 c -0.0883,-1.37 0.265,-2.96 -1.19,-3.62 l -2.34,-0.618 -2.12,6.8 c 0.927,0.485 2.07,0.838 3.18,1.15 1.19,0.176 2.52,1.19 3.62,0.221 1.19,-1.06 2.16,-2.38 3.09,-3.62 l 0.397,0 c -0.176,1.85 -0.971,3.71 -1.46,5.52 -4.5,-1.19 -8.82,-2.69 -13.2,-4.02 l 0.0882,-0.309 c 0.485,0.132 1.06,0.132 1.5,0.397 1.54,-4.59 2.82,-9.22 4.24,-13.9 l -1.5,-0.529 0.0891,-0.31 c 4.37,1.19 8.6,2.56 12.9,3.8 z"
       id="path130"
       inkscape:connector-curvature="0"
       style="fill:#6f777d" /><path
       d="m 98.9,189.4 c 1.06,2.82 0.53,6.35 -1.81,8.47 -4.02,3.49 -10,1.41 -14.7,0.927 l 0,-0.309 c 0.662,-0.309 1.76,0.662 1.81,-0.441 l 1.9,-13.6 c -0.353,-0.618 -1.1,-0.131 -1.59,-0.441 l 0,-0.397 c 5.21,0.971 11.6,0.352 14.4,5.82 z m -9.75,-4.68 c -0.838,4.68 -1.37,9.44 -2.03,14.2 2.38,0.397 5.56,0.838 7.19,-1.41 1.72,-2.96 2.65,-7.1 0.882,-10.4 -1.46,-1.76 -3.79,-2.25 -6.04,-2.43 z"
       id="path132"
       inkscape:connector-curvature="0"
       style="fill:#6f777d" /><path
       d="m 124.9,196.4 1.15,-0.131 c 0,0.131 0,0.265 0.131,0.309 l -0.309,0.221 c -2.03,0.176 -3.93,0.972 -5.83,0.972 0.132,-0.707 1.32,-0.353 1.9,-0.751 -0.971,-1.76 -2.12,-3.49 -3.18,-5.21 -1.94,0.441 -3.97,0.617 -5.82,1.28 -0.397,1.85 -0.706,3.71 -1.19,5.52 0.75,0.0891 1.59,-0.131 2.34,-0.221 0.176,0.176 0.0891,0.441 0.132,0.662 l -4.59,0.53 0,-0.53 c 0.485,-0.265 1.28,0.132 1.5,-0.529 1.06,-5.12 2.12,-10.3 3.18,-15.4 2.21,-1.76 2.43,1.32 3.62,2.3 l 6.97,10.9 z m -10.3,-10.7 -1.46,6.57 5.07,-0.972 c -1.1,-1.9 -2.43,-3.71 -3.62,-5.6 z"
       id="path134"
       inkscape:connector-curvature="0"
       style="fill:#6f777d" /><path
       d="m 129.9,187.4 c 0.265,0.882 0.221,1.76 -0.31,2.52 -0.706,0.75 -1.76,1.06 -2.74,0.75 -0.75,-0.131 -1.15,-0.927 -1.5,-1.5 -0.221,-0.707 -0.0883,-1.5 0.31,-2.12 0.706,-0.927 1.76,-1.24 2.87,-0.927 0.529,0.263 1.19,0.661 1.37,1.28 z"
       id="path136"
       inkscape:connector-curvature="0"
       style="fill:#6f777d" /></g></svg>